<svg width="3132" height="3237" style="background-color: white" xmlns="http://www.w3.org/2000/svg" xmlns:xlink="http://www.w3.org/1999/xlink">
  <style>
    text {
      font-family: "Futura", sans-serif;
      font-size: 13px;
      font-weight: 500;
    }
    .node {
      stroke-linecap: round;
    }
    .link {
      fill: none;
    }
  </style>

  
      <path class="link" d="&#10;      M20 58&#10;      L74 58&#10;      A16 16 90 0 1 90 74&#10;      L90 120&#10;      A16 16 90 0 0 106 136&#10;      L104 136&#10;      M20 58&#10;      L74 58&#10;      A16 16 90 0 1 90 74&#10;      L90 146&#10;      A16 16 90 0 0 106 162&#10;      L104 162" stroke="white" stroke-width="5"/>
      <path class="link" d="&#10;      M20 58&#10;      L74 58&#10;      A16 16 90 0 1 90 74&#10;      L90 120&#10;      A16 16 90 0 0 106 136&#10;      L104 136&#10;      M20 58&#10;      L74 58&#10;      A16 16 90 0 1 90 74&#10;      L90 146&#10;      A16 16 90 0 0 106 162&#10;      L104 162" stroke="#1b9e77" stroke-width="2"/>
    
      <path class="link" d="&#10;      M104 140&#10;      L158 140&#10;      A16 16 90 0 1 174 156&#10;      L174 202&#10;      A16 16 90 0 0 190 218&#10;      L188 218" stroke="white" stroke-width="5"/>
      <path class="link" d="&#10;      M104 140&#10;      L158 140&#10;      A16 16 90 0 1 174 156&#10;      L174 202&#10;      A16 16 90 0 0 190 218&#10;      L188 218" stroke="#d95f02" stroke-width="2"/>
    
      <path class="link" d="&#10;      M188 218&#10;      L242 218&#10;      A16 16 90 0 1 258 234&#10;      L258 280&#10;      A16 16 90 0 0 274 296&#10;      L272 296" stroke="white" stroke-width="5"/>
      <path class="link" d="&#10;      M188 218&#10;      L242 218&#10;      A16 16 90 0 1 258 234&#10;      L258 280&#10;      A16 16 90 0 0 274 296&#10;      L272 296" stroke="#7570b3" stroke-width="2"/>
    
      <path class="link" d="&#10;      M272 294&#10;      L326 294&#10;      A16 16 90 0 1 342 310&#10;      L342 356&#10;      A16 16 90 0 0 358 372&#10;      L356 372&#10;      M272 294&#10;      L326 294&#10;      A16 16 90 0 1 342 310&#10;      L342 384&#10;      A16 16 90 0 0 358 400&#10;      L356 400&#10;      M272 294&#10;      L326 294&#10;      A16 16 90 0 1 342 310&#10;      L342 412&#10;      A16 16 90 0 0 358 428&#10;      L356 428" stroke="white" stroke-width="5"/>
      <path class="link" d="&#10;      M272 294&#10;      L326 294&#10;      A16 16 90 0 1 342 310&#10;      L342 356&#10;      A16 16 90 0 0 358 372&#10;      L356 372&#10;      M272 294&#10;      L326 294&#10;      A16 16 90 0 1 342 310&#10;      L342 384&#10;      A16 16 90 0 0 358 400&#10;      L356 400&#10;      M272 294&#10;      L326 294&#10;      A16 16 90 0 1 342 310&#10;      L342 412&#10;      A16 16 90 0 0 358 428&#10;      L356 428" stroke="#e7298a" stroke-width="2"/>
    
      <path class="link" d="&#10;      M356 374&#10;      L452 374&#10;      A16 16 90 0 1 468 390&#10;      L468 466&#10;      A16 16 90 0 0 484 482&#10;      L482 482&#10;      M356 404&#10;      L452 404&#10;      A16 16 90 0 1 468 420&#10;      L468 466&#10;      A16 16 90 0 0 484 482&#10;      L482 482&#10;      M356 374&#10;      L452 374&#10;      A16 16 90 0 1 468 390&#10;      L468 488&#10;      A16 16 90 0 0 484 504&#10;      L482 504&#10;      M356 404&#10;      L452 404&#10;      A16 16 90 0 1 468 420&#10;      L468 488&#10;      A16 16 90 0 0 484 504&#10;      L482 504" stroke="white" stroke-width="5"/>
      <path class="link" d="&#10;      M356 374&#10;      L452 374&#10;      A16 16 90 0 1 468 390&#10;      L468 466&#10;      A16 16 90 0 0 484 482&#10;      L482 482&#10;      M356 404&#10;      L452 404&#10;      A16 16 90 0 1 468 420&#10;      L468 466&#10;      A16 16 90 0 0 484 482&#10;      L482 482&#10;      M356 374&#10;      L452 374&#10;      A16 16 90 0 1 468 390&#10;      L468 488&#10;      A16 16 90 0 0 484 504&#10;      L482 504&#10;      M356 404&#10;      L452 404&#10;      A16 16 90 0 1 468 420&#10;      L468 488&#10;      A16 16 90 0 0 484 504&#10;      L482 504" stroke="#66a61e" stroke-width="2"/>
    
      <path class="link" d="&#10;      M272 294&#10;      L354 294&#10;      A16 16 90 0 1 370 310&#10;      L370 510&#10;      A16 16 90 0 0 386 526&#10;      L482 526" stroke="white" stroke-width="5"/>
      <path class="link" d="&#10;      M272 294&#10;      L354 294&#10;      A16 16 90 0 1 370 310&#10;      L370 510&#10;      A16 16 90 0 0 386 526&#10;      L482 526" stroke="#e6ab02" stroke-width="2"/>
    
      <path class="link" d="&#10;      M272 298&#10;      L424 298&#10;      A16 16 90 0 1 440 314&#10;      L440 534&#10;      A16 16 90 0 0 456 550&#10;      L482 550&#10;      M356 370&#10;      L424 370&#10;      A16 16 90 0 1 440 386&#10;      L440 534&#10;      A16 16 90 0 0 456 550&#10;      L482 550&#10;      M356 400&#10;      L424 400&#10;      A16 16 90 0 1 440 416&#10;      L440 534&#10;      A16 16 90 0 0 456 550&#10;      L482 550" stroke="white" stroke-width="5"/>
      <path class="link" d="&#10;      M272 298&#10;      L424 298&#10;      A16 16 90 0 1 440 314&#10;      L440 534&#10;      A16 16 90 0 0 456 550&#10;      L482 550&#10;      M356 370&#10;      L424 370&#10;      A16 16 90 0 1 440 386&#10;      L440 534&#10;      A16 16 90 0 0 456 550&#10;      L482 550&#10;      M356 400&#10;      L424 400&#10;      A16 16 90 0 1 440 416&#10;      L440 534&#10;      A16 16 90 0 0 456 550&#10;      L482 550" stroke="#a6761d" stroke-width="2"/>
    
      <path class="link" d="&#10;      M356 430&#10;      L410 430&#10;      A16 16 90 0 1 426 446&#10;      L426 558&#10;      A16 16 90 0 0 442 574&#10;      L482 574&#10;      M356 430&#10;      L410 430&#10;      A16 16 90 0 1 426 446&#10;      L426 580&#10;      A16 16 90 0 0 442 596&#10;      L482 596" stroke="white" stroke-width="5"/>
      <path class="link" d="&#10;      M356 430&#10;      L410 430&#10;      A16 16 90 0 1 426 446&#10;      L426 558&#10;      A16 16 90 0 0 442 574&#10;      L482 574&#10;      M356 430&#10;      L410 430&#10;      A16 16 90 0 1 426 446&#10;      L426 580&#10;      A16 16 90 0 0 442 596&#10;      L482 596" stroke="#666666" stroke-width="2"/>
    
      <path class="link" d="&#10;      M482 504&#10;      L550 504&#10;      A16 16 90 0 1 566 520&#10;      L566 634&#10;      A16 16 90 0 0 582 650&#10;      L580 650" stroke="white" stroke-width="5"/>
      <path class="link" d="&#10;      M482 504&#10;      L550 504&#10;      A16 16 90 0 1 566 520&#10;      L566 634&#10;      A16 16 90 0 0 582 650&#10;      L580 650" stroke="#1b9e77" stroke-width="2"/>
    
      <path class="link" d="&#10;      M482 596&#10;      L536 596&#10;      A16 16 90 0 1 552 612&#10;      L552 658&#10;      A16 16 90 0 0 568 674&#10;      L580 674" stroke="white" stroke-width="5"/>
      <path class="link" d="&#10;      M482 596&#10;      L536 596&#10;      A16 16 90 0 1 552 612&#10;      L552 658&#10;      A16 16 90 0 0 568 674&#10;      L580 674" stroke="#d95f02" stroke-width="2"/>
    
      <path class="link" d="&#10;      M482 552&#10;      L634 552&#10;      A16 16 90 0 1 650 568&#10;      L650 714&#10;      A16 16 90 0 0 666 730&#10;      L664 730&#10;      M356 426&#10;      L634 426&#10;      A16 16 90 0 1 650 442&#10;      L650 714&#10;      A16 16 90 0 0 666 730&#10;      L664 730&#10;      M580 652&#10;      L634 652&#10;      A16 16 90 0 1 650 668&#10;      L650 714&#10;      A16 16 90 0 0 666 730&#10;      L664 730" stroke="white" stroke-width="5"/>
      <path class="link" d="&#10;      M482 552&#10;      L634 552&#10;      A16 16 90 0 1 650 568&#10;      L650 714&#10;      A16 16 90 0 0 666 730&#10;      L664 730&#10;      M356 426&#10;      L634 426&#10;      A16 16 90 0 1 650 442&#10;      L650 714&#10;      A16 16 90 0 0 666 730&#10;      L664 730&#10;      M580 652&#10;      L634 652&#10;      A16 16 90 0 1 650 668&#10;      L650 714&#10;      A16 16 90 0 0 666 730&#10;      L664 730" stroke="#7570b3" stroke-width="2"/>
    
      <path class="link" d="&#10;      M356 396&#10;      L718 396&#10;      A16 16 90 0 1 734 412&#10;      L734 792&#10;      A16 16 90 0 0 750 808&#10;      L748 808&#10;      M664 730&#10;      L718 730&#10;      A16 16 90 0 1 734 746&#10;      L734 792&#10;      A16 16 90 0 0 750 808&#10;      L748 808&#10;      M482 548&#10;      L718 548&#10;      A16 16 90 0 1 734 564&#10;      L734 792&#10;      A16 16 90 0 0 750 808&#10;      L748 808&#10;      M482 526&#10;      L718 526&#10;      A16 16 90 0 1 734 542&#10;      L734 792&#10;      A16 16 90 0 0 750 808&#10;      L748 808&#10;      M580 648&#10;      L718 648&#10;      A16 16 90 0 1 734 664&#10;      L734 792&#10;      A16 16 90 0 0 750 808&#10;      L748 808" stroke="white" stroke-width="5"/>
      <path class="link" d="&#10;      M356 396&#10;      L718 396&#10;      A16 16 90 0 1 734 412&#10;      L734 792&#10;      A16 16 90 0 0 750 808&#10;      L748 808&#10;      M664 730&#10;      L718 730&#10;      A16 16 90 0 1 734 746&#10;      L734 792&#10;      A16 16 90 0 0 750 808&#10;      L748 808&#10;      M482 548&#10;      L718 548&#10;      A16 16 90 0 1 734 564&#10;      L734 792&#10;      A16 16 90 0 0 750 808&#10;      L748 808&#10;      M482 526&#10;      L718 526&#10;      A16 16 90 0 1 734 542&#10;      L734 792&#10;      A16 16 90 0 0 750 808&#10;      L748 808&#10;      M580 648&#10;      L718 648&#10;      A16 16 90 0 1 734 664&#10;      L734 792&#10;      A16 16 90 0 0 750 808&#10;      L748 808" stroke="#e7298a" stroke-width="2"/>
    
      <path class="link" d="&#10;      M748 808&#10;      L802 808&#10;      A16 16 90 0 1 818 824&#10;      L818 870&#10;      A16 16 90 0 0 834 886&#10;      L832 886" stroke="white" stroke-width="5"/>
      <path class="link" d="&#10;      M748 808&#10;      L802 808&#10;      A16 16 90 0 1 818 824&#10;      L818 870&#10;      A16 16 90 0 0 834 886&#10;      L832 886" stroke="#66a61e" stroke-width="2"/>
    
      <path class="link" d="&#10;      M832 886&#10;      L886 886&#10;      A16 16 90 0 1 902 902&#10;      L902 948&#10;      A16 16 90 0 0 918 964&#10;      L916 964" stroke="white" stroke-width="5"/>
      <path class="link" d="&#10;      M832 886&#10;      L886 886&#10;      A16 16 90 0 1 902 902&#10;      L902 948&#10;      A16 16 90 0 0 918 964&#10;      L916 964" stroke="#e6ab02" stroke-width="2"/>
    
      <path class="link" d="&#10;      M916 968&#10;      L970 968&#10;      A16 16 90 0 1 986 984&#10;      L986 1030&#10;      A16 16 90 0 0 1002 1046&#10;      L1000 1046&#10;      M916 968&#10;      L970 968&#10;      A16 16 90 0 1 986 984&#10;      L986 1054&#10;      A16 16 90 0 0 1002 1070&#10;      L1000 1070&#10;      M916 968&#10;      L970 968&#10;      A16 16 90 0 1 986 984&#10;      L986 1080&#10;      A16 16 90 0 0 1002 1096&#10;      L1000 1096&#10;      M916 968&#10;      L970 968&#10;      A16 16 90 0 1 986 984&#10;      L986 1104&#10;      A16 16 90 0 0 1002 1120&#10;      L1000 1120&#10;      M916 968&#10;      L970 968&#10;      A16 16 90 0 1 986 984&#10;      L986 1126&#10;      A16 16 90 0 0 1002 1142&#10;      L1000 1142" stroke="white" stroke-width="5"/>
      <path class="link" d="&#10;      M916 968&#10;      L970 968&#10;      A16 16 90 0 1 986 984&#10;      L986 1030&#10;      A16 16 90 0 0 1002 1046&#10;      L1000 1046&#10;      M916 968&#10;      L970 968&#10;      A16 16 90 0 1 986 984&#10;      L986 1054&#10;      A16 16 90 0 0 1002 1070&#10;      L1000 1070&#10;      M916 968&#10;      L970 968&#10;      A16 16 90 0 1 986 984&#10;      L986 1080&#10;      A16 16 90 0 0 1002 1096&#10;      L1000 1096&#10;      M916 968&#10;      L970 968&#10;      A16 16 90 0 1 986 984&#10;      L986 1104&#10;      A16 16 90 0 0 1002 1120&#10;      L1000 1120&#10;      M916 968&#10;      L970 968&#10;      A16 16 90 0 1 986 984&#10;      L986 1126&#10;      A16 16 90 0 0 1002 1142&#10;      L1000 1142" stroke="#a6761d" stroke-width="2"/>
    
      <path class="link" d="&#10;      M1000 1046&#10;      L1110 1046&#10;      A16 16 90 0 1 1126 1062&#10;      L1126 1108&#10;      A16 16 90 0 0 1142 1124&#10;      L1140 1124&#10;      M1000 1046&#10;      L1110 1046&#10;      A16 16 90 0 1 1126 1062&#10;      L1126 1130&#10;      A16 16 90 0 0 1142 1146&#10;      L1140 1146" stroke="white" stroke-width="5"/>
      <path class="link" d="&#10;      M1000 1046&#10;      L1110 1046&#10;      A16 16 90 0 1 1126 1062&#10;      L1126 1108&#10;      A16 16 90 0 0 1142 1124&#10;      L1140 1124&#10;      M1000 1046&#10;      L1110 1046&#10;      A16 16 90 0 1 1126 1062&#10;      L1126 1130&#10;      A16 16 90 0 0 1142 1146&#10;      L1140 1146" stroke="#666666" stroke-width="2"/>
    
      <path class="link" d="&#10;      M1000 1072&#10;      L1096 1072&#10;      A16 16 90 0 1 1112 1088&#10;      L1112 1152&#10;      A16 16 90 0 0 1128 1168&#10;      L1140 1168&#10;      M1000 1072&#10;      L1096 1072&#10;      A16 16 90 0 1 1112 1088&#10;      L1112 1174&#10;      A16 16 90 0 0 1128 1190&#10;      L1140 1190&#10;      M1000 1072&#10;      L1096 1072&#10;      A16 16 90 0 1 1112 1088&#10;      L1112 1196&#10;      A16 16 90 0 0 1128 1212&#10;      L1140 1212" stroke="white" stroke-width="5"/>
      <path class="link" d="&#10;      M1000 1072&#10;      L1096 1072&#10;      A16 16 90 0 1 1112 1088&#10;      L1112 1152&#10;      A16 16 90 0 0 1128 1168&#10;      L1140 1168&#10;      M1000 1072&#10;      L1096 1072&#10;      A16 16 90 0 1 1112 1088&#10;      L1112 1174&#10;      A16 16 90 0 0 1128 1190&#10;      L1140 1190&#10;      M1000 1072&#10;      L1096 1072&#10;      A16 16 90 0 1 1112 1088&#10;      L1112 1196&#10;      A16 16 90 0 0 1128 1212&#10;      L1140 1212" stroke="#1b9e77" stroke-width="2"/>
    
      <path class="link" d="&#10;      M1000 1098&#10;      L1082 1098&#10;      A16 16 90 0 1 1098 1114&#10;      L1098 1220&#10;      A16 16 90 0 0 1114 1236&#10;      L1140 1236&#10;      M1000 1098&#10;      L1082 1098&#10;      A16 16 90 0 1 1098 1114&#10;      L1098 1244&#10;      A16 16 90 0 0 1114 1260&#10;      L1140 1260&#10;      M1000 1098&#10;      L1082 1098&#10;      A16 16 90 0 1 1098 1114&#10;      L1098 1266&#10;      A16 16 90 0 0 1114 1282&#10;      L1140 1282&#10;      M1000 1098&#10;      L1082 1098&#10;      A16 16 90 0 1 1098 1114&#10;      L1098 1290&#10;      A16 16 90 0 0 1114 1306&#10;      L1140 1306" stroke="white" stroke-width="5"/>
      <path class="link" d="&#10;      M1000 1098&#10;      L1082 1098&#10;      A16 16 90 0 1 1098 1114&#10;      L1098 1220&#10;      A16 16 90 0 0 1114 1236&#10;      L1140 1236&#10;      M1000 1098&#10;      L1082 1098&#10;      A16 16 90 0 1 1098 1114&#10;      L1098 1244&#10;      A16 16 90 0 0 1114 1260&#10;      L1140 1260&#10;      M1000 1098&#10;      L1082 1098&#10;      A16 16 90 0 1 1098 1114&#10;      L1098 1266&#10;      A16 16 90 0 0 1114 1282&#10;      L1140 1282&#10;      M1000 1098&#10;      L1082 1098&#10;      A16 16 90 0 1 1098 1114&#10;      L1098 1290&#10;      A16 16 90 0 0 1114 1306&#10;      L1140 1306" stroke="#d95f02" stroke-width="2"/>
    
      <path class="link" d="&#10;      M916 964&#10;      L1068 964&#10;      A16 16 90 0 1 1084 980&#10;      L1084 1318&#10;      A16 16 90 0 0 1100 1334&#10;      L1140 1334&#10;      M1000 1094&#10;      L1068 1094&#10;      A16 16 90 0 1 1084 1110&#10;      L1084 1318&#10;      A16 16 90 0 0 1100 1334&#10;      L1140 1334" stroke="white" stroke-width="5"/>
      <path class="link" d="&#10;      M916 964&#10;      L1068 964&#10;      A16 16 90 0 1 1084 980&#10;      L1084 1318&#10;      A16 16 90 0 0 1100 1334&#10;      L1140 1334&#10;      M1000 1094&#10;      L1068 1094&#10;      A16 16 90 0 1 1084 1110&#10;      L1084 1318&#10;      A16 16 90 0 0 1100 1334&#10;      L1140 1334" stroke="#7570b3" stroke-width="2"/>
    
      <path class="link" d="&#10;      M748 808&#10;      L802 808&#10;      A16 16 90 0 1 818 824&#10;      L818 1350&#10;      A16 16 90 0 0 834 1366&#10;      L1140 1366" stroke="white" stroke-width="5"/>
      <path class="link" d="&#10;      M748 808&#10;      L802 808&#10;      A16 16 90 0 1 818 824&#10;      L818 1350&#10;      A16 16 90 0 0 834 1366&#10;      L1140 1366" stroke="#e7298a" stroke-width="2"/>
    
      <path class="link" d="&#10;      M1140 1168&#10;      L1250 1168&#10;      A16 16 90 0 1 1266 1184&#10;      L1266 1302&#10;      A16 16 90 0 0 1282 1318&#10;      L1280 1318" stroke="white" stroke-width="5"/>
      <path class="link" d="&#10;      M1140 1168&#10;      L1250 1168&#10;      A16 16 90 0 1 1266 1184&#10;      L1266 1302&#10;      A16 16 90 0 0 1282 1318&#10;      L1280 1318" stroke="#66a61e" stroke-width="2"/>
    
      <path class="link" d="&#10;      M1000 1120&#10;      L1096 1120&#10;      A16 16 90 0 1 1112 1136&#10;      L1112 1324&#10;      A16 16 90 0 0 1128 1340&#10;      L1280 1340&#10;      M1000 1120&#10;      L1096 1120&#10;      A16 16 90 0 1 1112 1136&#10;      L1112 1346&#10;      A16 16 90 0 0 1128 1362&#10;      L1280 1362" stroke="white" stroke-width="5"/>
      <path class="link" d="&#10;      M1000 1120&#10;      L1096 1120&#10;      A16 16 90 0 1 1112 1136&#10;      L1112 1324&#10;      A16 16 90 0 0 1128 1340&#10;      L1280 1340&#10;      M1000 1120&#10;      L1096 1120&#10;      A16 16 90 0 1 1112 1136&#10;      L1112 1346&#10;      A16 16 90 0 0 1128 1362&#10;      L1280 1362" stroke="#e6ab02" stroke-width="2"/>
    
      <path class="link" d="&#10;      M1140 1308&#10;      L1222 1308&#10;      A16 16 90 0 1 1238 1324&#10;      L1238 1370&#10;      A16 16 90 0 0 1254 1386&#10;      L1280 1386" stroke="white" stroke-width="5"/>
      <path class="link" d="&#10;      M1140 1308&#10;      L1222 1308&#10;      A16 16 90 0 1 1238 1324&#10;      L1238 1370&#10;      A16 16 90 0 0 1254 1386&#10;      L1280 1386" stroke="#a6761d" stroke-width="2"/>
    
      <path class="link" d="&#10;      M1140 1238&#10;      L1208 1238&#10;      A16 16 90 0 1 1224 1254&#10;      L1224 1398&#10;      A16 16 90 0 0 1240 1414&#10;      L1280 1414" stroke="white" stroke-width="5"/>
      <path class="link" d="&#10;      M1140 1238&#10;      L1208 1238&#10;      A16 16 90 0 1 1224 1254&#10;      L1224 1398&#10;      A16 16 90 0 0 1240 1414&#10;      L1280 1414" stroke="#666666" stroke-width="2"/>
    
      <path class="link" d="&#10;      M1140 1260&#10;      L1194 1260&#10;      A16 16 90 0 1 1210 1276&#10;      L1210 1424&#10;      A16 16 90 0 0 1226 1440&#10;      L1280 1440" stroke="white" stroke-width="5"/>
      <path class="link" d="&#10;      M1140 1260&#10;      L1194 1260&#10;      A16 16 90 0 1 1210 1276&#10;      L1210 1424&#10;      A16 16 90 0 0 1226 1440&#10;      L1280 1440" stroke="#1b9e77" stroke-width="2"/>
    
      <path class="link" d="&#10;      M1280 1384&#10;      L1362 1384&#10;      A16 16 90 0 1 1378 1400&#10;      L1378 1452&#10;      A16 16 90 0 0 1394 1468&#10;      L1392 1468&#10;      M916 960&#10;      L1362 960&#10;      A16 16 90 0 1 1378 976&#10;      L1378 1452&#10;      A16 16 90 0 0 1394 1468&#10;      L1392 1468" stroke="white" stroke-width="5"/>
      <path class="link" d="&#10;      M1280 1384&#10;      L1362 1384&#10;      A16 16 90 0 1 1378 1400&#10;      L1378 1452&#10;      A16 16 90 0 0 1394 1468&#10;      L1392 1468&#10;      M916 960&#10;      L1362 960&#10;      A16 16 90 0 1 1378 976&#10;      L1378 1452&#10;      A16 16 90 0 0 1394 1468&#10;      L1392 1468" stroke="#d95f02" stroke-width="2"/>
    
      <path class="link" d="&#10;      M1140 1304&#10;      L1348 1304&#10;      A16 16 90 0 1 1364 1320&#10;      L1364 1476&#10;      A16 16 90 0 0 1380 1492&#10;      L1392 1492&#10;      M1280 1414&#10;      L1348 1414&#10;      A16 16 90 0 1 1364 1430&#10;      L1364 1476&#10;      A16 16 90 0 0 1380 1492&#10;      L1392 1492" stroke="white" stroke-width="5"/>
      <path class="link" d="&#10;      M1140 1304&#10;      L1348 1304&#10;      A16 16 90 0 1 1364 1320&#10;      L1364 1476&#10;      A16 16 90 0 0 1380 1492&#10;      L1392 1492&#10;      M1280 1414&#10;      L1348 1414&#10;      A16 16 90 0 1 1364 1430&#10;      L1364 1476&#10;      A16 16 90 0 0 1380 1492&#10;      L1392 1492" stroke="#7570b3" stroke-width="2"/>
    
      <path class="link" d="&#10;      M1140 1338&#10;      L1334 1338&#10;      A16 16 90 0 1 1350 1354&#10;      L1350 1502&#10;      A16 16 90 0 0 1366 1518&#10;      L1392 1518&#10;      M1280 1440&#10;      L1334 1440&#10;      A16 16 90 0 1 1350 1456&#10;      L1350 1502&#10;      A16 16 90 0 0 1366 1518&#10;      L1392 1518&#10;      M1280 1418&#10;      L1334 1418&#10;      A16 16 90 0 1 1350 1434&#10;      L1350 1502&#10;      A16 16 90 0 0 1366 1518&#10;      L1392 1518" stroke="white" stroke-width="5"/>
      <path class="link" d="&#10;      M1140 1338&#10;      L1334 1338&#10;      A16 16 90 0 1 1350 1354&#10;      L1350 1502&#10;      A16 16 90 0 0 1366 1518&#10;      L1392 1518&#10;      M1280 1440&#10;      L1334 1440&#10;      A16 16 90 0 1 1350 1456&#10;      L1350 1502&#10;      A16 16 90 0 0 1366 1518&#10;      L1392 1518&#10;      M1280 1418&#10;      L1334 1418&#10;      A16 16 90 0 1 1350 1434&#10;      L1350 1502&#10;      A16 16 90 0 0 1366 1518&#10;      L1392 1518" stroke="#e7298a" stroke-width="2"/>
    
      <path class="link" d="&#10;      M1280 1388&#10;      L1488 1388&#10;      A16 16 90 0 1 1504 1404&#10;      L1504 1556&#10;      A16 16 90 0 0 1520 1572&#10;      L1518 1572&#10;      M1392 1494&#10;      L1488 1494&#10;      A16 16 90 0 1 1504 1510&#10;      L1504 1556&#10;      A16 16 90 0 0 1520 1572&#10;      L1518 1572&#10;      M1140 1330&#10;      L1488 1330&#10;      A16 16 90 0 1 1504 1346&#10;      L1504 1556&#10;      A16 16 90 0 0 1520 1572&#10;      L1518 1572" stroke="white" stroke-width="5"/>
      <path class="link" d="&#10;      M1280 1388&#10;      L1488 1388&#10;      A16 16 90 0 1 1504 1404&#10;      L1504 1556&#10;      A16 16 90 0 0 1520 1572&#10;      L1518 1572&#10;      M1392 1494&#10;      L1488 1494&#10;      A16 16 90 0 1 1504 1510&#10;      L1504 1556&#10;      A16 16 90 0 0 1520 1572&#10;      L1518 1572&#10;      M1140 1330&#10;      L1488 1330&#10;      A16 16 90 0 1 1504 1346&#10;      L1504 1556&#10;      A16 16 90 0 0 1520 1572&#10;      L1518 1572" stroke="#66a61e" stroke-width="2"/>
    
      <path class="link" d="&#10;      M1392 1516&#10;      L1474 1516&#10;      A16 16 90 0 1 1490 1532&#10;      L1490 1578&#10;      A16 16 90 0 0 1506 1594&#10;      L1518 1594&#10;      M1392 1516&#10;      L1474 1516&#10;      A16 16 90 0 1 1490 1532&#10;      L1490 1600&#10;      A16 16 90 0 0 1506 1616&#10;      L1518 1616" stroke="white" stroke-width="5"/>
      <path class="link" d="&#10;      M1392 1516&#10;      L1474 1516&#10;      A16 16 90 0 1 1490 1532&#10;      L1490 1578&#10;      A16 16 90 0 0 1506 1594&#10;      L1518 1594&#10;      M1392 1516&#10;      L1474 1516&#10;      A16 16 90 0 1 1490 1532&#10;      L1490 1600&#10;      A16 16 90 0 0 1506 1616&#10;      L1518 1616" stroke="#e6ab02" stroke-width="2"/>
    
      <path class="link" d="&#10;      M1392 1520&#10;      L1460 1520&#10;      A16 16 90 0 1 1476 1536&#10;      L1476 1622&#10;      A16 16 90 0 0 1492 1638&#10;      L1518 1638&#10;      M1000 1068&#10;      L1460 1068&#10;      A16 16 90 0 1 1476 1084&#10;      L1476 1622&#10;      A16 16 90 0 0 1492 1638&#10;      L1518 1638" stroke="white" stroke-width="5"/>
      <path class="link" d="&#10;      M1392 1520&#10;      L1460 1520&#10;      A16 16 90 0 1 1476 1536&#10;      L1476 1622&#10;      A16 16 90 0 0 1492 1638&#10;      L1518 1638&#10;      M1000 1068&#10;      L1460 1068&#10;      A16 16 90 0 1 1476 1084&#10;      L1476 1622&#10;      A16 16 90 0 0 1492 1638&#10;      L1518 1638" stroke="#a6761d" stroke-width="2"/>
    
      <path class="link" d="&#10;      M1140 1334&#10;      L1194 1334&#10;      A16 16 90 0 1 1210 1350&#10;      L1210 1644&#10;      A16 16 90 0 0 1226 1660&#10;      L1518 1660&#10;      M1140 1372&#10;      L1194 1372&#10;      A16 16 90 0 1 1210 1388&#10;      L1210 1644&#10;      A16 16 90 0 0 1226 1660&#10;      L1518 1660" stroke="white" stroke-width="5"/>
      <path class="link" d="&#10;      M1140 1334&#10;      L1194 1334&#10;      A16 16 90 0 1 1210 1350&#10;      L1210 1644&#10;      A16 16 90 0 0 1226 1660&#10;      L1518 1660&#10;      M1140 1372&#10;      L1194 1372&#10;      A16 16 90 0 1 1210 1388&#10;      L1210 1644&#10;      A16 16 90 0 0 1226 1660&#10;      L1518 1660" stroke="#666666" stroke-width="2"/>
    
      <path class="link" d="&#10;      M1518 1638&#10;      L1600 1638&#10;      A16 16 90 0 1 1616 1654&#10;      L1616 1700&#10;      A16 16 90 0 0 1632 1716&#10;      L1630 1716" stroke="white" stroke-width="5"/>
      <path class="link" d="&#10;      M1518 1638&#10;      L1600 1638&#10;      A16 16 90 0 1 1616 1654&#10;      L1616 1700&#10;      A16 16 90 0 0 1632 1716&#10;      L1630 1716" stroke="#1b9e77" stroke-width="2"/>
    
      <path class="link" d="&#10;      M1140 1360&#10;      L1208 1360&#10;      A16 16 90 0 1 1224 1376&#10;      L1224 1722&#10;      A16 16 90 0 0 1240 1738&#10;      L1630 1738&#10;      M104 136&#10;      L1208 136&#10;      A16 16 90 0 1 1224 152&#10;      L1224 1722&#10;      A16 16 90 0 0 1240 1738&#10;      L1630 1738" stroke="white" stroke-width="5"/>
      <path class="link" d="&#10;      M1140 1360&#10;      L1208 1360&#10;      A16 16 90 0 1 1224 1376&#10;      L1224 1722&#10;      A16 16 90 0 0 1240 1738&#10;      L1630 1738&#10;      M104 136&#10;      L1208 136&#10;      A16 16 90 0 1 1224 152&#10;      L1224 1722&#10;      A16 16 90 0 0 1240 1738&#10;      L1630 1738" stroke="#d95f02" stroke-width="2"/>
    
      <path class="link" d="&#10;      M1140 1368&#10;      L1194 1368&#10;      A16 16 90 0 1 1210 1384&#10;      L1210 1744&#10;      A16 16 90 0 0 1226 1760&#10;      L1630 1760&#10;      M1140 1234&#10;      L1194 1234&#10;      A16 16 90 0 1 1210 1250&#10;      L1210 1744&#10;      A16 16 90 0 0 1226 1760&#10;      L1630 1760" stroke="white" stroke-width="5"/>
      <path class="link" d="&#10;      M1140 1368&#10;      L1194 1368&#10;      A16 16 90 0 1 1210 1384&#10;      L1210 1744&#10;      A16 16 90 0 0 1226 1760&#10;      L1630 1760&#10;      M1140 1234&#10;      L1194 1234&#10;      A16 16 90 0 1 1210 1250&#10;      L1210 1744&#10;      A16 16 90 0 0 1226 1760&#10;      L1630 1760" stroke="#7570b3" stroke-width="2"/>
    
      <path class="link" d="&#10;      M1630 1738&#10;      L1712 1738&#10;      A16 16 90 0 1 1728 1754&#10;      L1728 1800&#10;      A16 16 90 0 0 1744 1816&#10;      L1742 1816" stroke="white" stroke-width="5"/>
      <path class="link" d="&#10;      M1630 1738&#10;      L1712 1738&#10;      A16 16 90 0 1 1728 1754&#10;      L1728 1800&#10;      A16 16 90 0 0 1744 1816&#10;      L1742 1816" stroke="#e7298a" stroke-width="2"/>
    
      <path class="link" d="&#10;      M1630 1760&#10;      L1698 1760&#10;      A16 16 90 0 1 1714 1776&#10;      L1714 1822&#10;      A16 16 90 0 0 1730 1838&#10;      L1742 1838" stroke="white" stroke-width="5"/>
      <path class="link" d="&#10;      M1630 1760&#10;      L1698 1760&#10;      A16 16 90 0 1 1714 1776&#10;      L1714 1822&#10;      A16 16 90 0 0 1730 1838&#10;      L1742 1838" stroke="#66a61e" stroke-width="2"/>
    
      <path class="link" d="&#10;      M482 504&#10;      L536 504&#10;      A16 16 90 0 1 552 520&#10;      L552 1844&#10;      A16 16 90 0 0 568 1860&#10;      L1742 1860" stroke="white" stroke-width="5"/>
      <path class="link" d="&#10;      M482 504&#10;      L536 504&#10;      A16 16 90 0 1 552 520&#10;      L552 1844&#10;      A16 16 90 0 0 568 1860&#10;      L1742 1860" stroke="#e6ab02" stroke-width="2"/>
    
      <path class="link" d="&#10;      M1742 1838&#10;      L1810 1838&#10;      A16 16 90 0 1 1826 1854&#10;      L1826 1900&#10;      A16 16 90 0 0 1842 1916&#10;      L1840 1916&#10;      M1742 1838&#10;      L1810 1838&#10;      A16 16 90 0 1 1826 1854&#10;      L1826 1922&#10;      A16 16 90 0 0 1842 1938&#10;      L1840 1938" stroke="white" stroke-width="5"/>
      <path class="link" d="&#10;      M1742 1838&#10;      L1810 1838&#10;      A16 16 90 0 1 1826 1854&#10;      L1826 1900&#10;      A16 16 90 0 0 1842 1916&#10;      L1840 1916&#10;      M1742 1838&#10;      L1810 1838&#10;      A16 16 90 0 1 1826 1854&#10;      L1826 1922&#10;      A16 16 90 0 0 1842 1938&#10;      L1840 1938" stroke="#a6761d" stroke-width="2"/>
    
      <path class="link" d="&#10;      M1742 1816&#10;      L1796 1816&#10;      A16 16 90 0 1 1812 1832&#10;      L1812 1944&#10;      A16 16 90 0 0 1828 1960&#10;      L1840 1960" stroke="white" stroke-width="5"/>
      <path class="link" d="&#10;      M1742 1816&#10;      L1796 1816&#10;      A16 16 90 0 1 1812 1832&#10;      L1812 1944&#10;      A16 16 90 0 0 1828 1960&#10;      L1840 1960" stroke="#666666" stroke-width="2"/>
    
      <path class="link" d="&#10;      M1840 1960&#10;      L1908 1960&#10;      A16 16 90 0 1 1924 1976&#10;      L1924 2022&#10;      A16 16 90 0 0 1940 2038&#10;      L1938 2038&#10;      M1840 1960&#10;      L1908 1960&#10;      A16 16 90 0 1 1924 1976&#10;      L1924 2044&#10;      A16 16 90 0 0 1940 2060&#10;      L1938 2060&#10;      M1840 1960&#10;      L1908 1960&#10;      A16 16 90 0 1 1924 1976&#10;      L1924 2066&#10;      A16 16 90 0 0 1940 2082&#10;      L1938 2082&#10;      M1840 1960&#10;      L1908 1960&#10;      A16 16 90 0 1 1924 1976&#10;      L1924 2088&#10;      A16 16 90 0 0 1940 2104&#10;      L1938 2104&#10;      M1840 1960&#10;      L1908 1960&#10;      A16 16 90 0 1 1924 1976&#10;      L1924 2110&#10;      A16 16 90 0 0 1940 2126&#10;      L1938 2126&#10;      M1840 1960&#10;      L1908 1960&#10;      A16 16 90 0 1 1924 1976&#10;      L1924 2156&#10;      A16 16 90 0 0 1940 2172&#10;      L1938 2172" stroke="white" stroke-width="5"/>
      <path class="link" d="&#10;      M1840 1960&#10;      L1908 1960&#10;      A16 16 90 0 1 1924 1976&#10;      L1924 2022&#10;      A16 16 90 0 0 1940 2038&#10;      L1938 2038&#10;      M1840 1960&#10;      L1908 1960&#10;      A16 16 90 0 1 1924 1976&#10;      L1924 2044&#10;      A16 16 90 0 0 1940 2060&#10;      L1938 2060&#10;      M1840 1960&#10;      L1908 1960&#10;      A16 16 90 0 1 1924 1976&#10;      L1924 2066&#10;      A16 16 90 0 0 1940 2082&#10;      L1938 2082&#10;      M1840 1960&#10;      L1908 1960&#10;      A16 16 90 0 1 1924 1976&#10;      L1924 2088&#10;      A16 16 90 0 0 1940 2104&#10;      L1938 2104&#10;      M1840 1960&#10;      L1908 1960&#10;      A16 16 90 0 1 1924 1976&#10;      L1924 2110&#10;      A16 16 90 0 0 1940 2126&#10;      L1938 2126&#10;      M1840 1960&#10;      L1908 1960&#10;      A16 16 90 0 1 1924 1976&#10;      L1924 2156&#10;      A16 16 90 0 0 1940 2172&#10;      L1938 2172" stroke="#1b9e77" stroke-width="2"/>
    
      <path class="link" d="&#10;      M1392 1516&#10;      L1446 1516&#10;      A16 16 90 0 1 1462 1532&#10;      L1462 2132&#10;      A16 16 90 0 0 1478 2148&#10;      L1938 2148" stroke="white" stroke-width="5"/>
      <path class="link" d="&#10;      M1392 1516&#10;      L1446 1516&#10;      A16 16 90 0 1 1462 1532&#10;      L1462 2132&#10;      A16 16 90 0 0 1478 2148&#10;      L1938 2148" stroke="#d95f02" stroke-width="2"/>
    
      <path class="link" d="&#10;      M1938 2170&#10;      L2020 2170&#10;      A16 16 90 0 1 2036 2186&#10;      L2036 2232&#10;      A16 16 90 0 0 2052 2248&#10;      L2050 2248" stroke="white" stroke-width="5"/>
      <path class="link" d="&#10;      M1938 2170&#10;      L2020 2170&#10;      A16 16 90 0 1 2036 2186&#10;      L2036 2232&#10;      A16 16 90 0 0 2052 2248&#10;      L2050 2248" stroke="#7570b3" stroke-width="2"/>
    
      <path class="link" d="&#10;      M1392 1490&#10;      L1460 1490&#10;      A16 16 90 0 1 1476 1506&#10;      L1476 2254&#10;      A16 16 90 0 0 1492 2270&#10;      L2050 2270" stroke="white" stroke-width="5"/>
      <path class="link" d="&#10;      M1392 1490&#10;      L1460 1490&#10;      A16 16 90 0 1 1476 1506&#10;      L1476 2254&#10;      A16 16 90 0 0 1492 2270&#10;      L2050 2270" stroke="#e7298a" stroke-width="2"/>
    
      <path class="link" d="&#10;      M1280 1410&#10;      L1334 1410&#10;      A16 16 90 0 1 1350 1426&#10;      L1350 2276&#10;      A16 16 90 0 0 1366 2292&#10;      L2050 2292" stroke="white" stroke-width="5"/>
      <path class="link" d="&#10;      M1280 1410&#10;      L1334 1410&#10;      A16 16 90 0 1 1350 1426&#10;      L1350 2276&#10;      A16 16 90 0 0 1366 2292&#10;      L2050 2292" stroke="#66a61e" stroke-width="2"/>
    
      <path class="link" d="&#10;      M1938 2174&#10;      L2146 2174&#10;      A16 16 90 0 1 2162 2190&#10;      L2162 2310&#10;      A16 16 90 0 0 2178 2326&#10;      L2176 2326&#10;      M2050 2248&#10;      L2146 2248&#10;      A16 16 90 0 1 2162 2264&#10;      L2162 2310&#10;      A16 16 90 0 0 2178 2326&#10;      L2176 2326" stroke="white" stroke-width="5"/>
      <path class="link" d="&#10;      M1938 2174&#10;      L2146 2174&#10;      A16 16 90 0 1 2162 2190&#10;      L2162 2310&#10;      A16 16 90 0 0 2178 2326&#10;      L2176 2326&#10;      M2050 2248&#10;      L2146 2248&#10;      A16 16 90 0 1 2162 2264&#10;      L2162 2310&#10;      A16 16 90 0 0 2178 2326&#10;      L2176 2326" stroke="#e6ab02" stroke-width="2"/>
    
      <path class="link" d="&#10;      M1938 2170&#10;      L2020 2170&#10;      A16 16 90 0 1 2036 2186&#10;      L2036 2332&#10;      A16 16 90 0 0 2052 2348&#10;      L2176 2348" stroke="white" stroke-width="5"/>
      <path class="link" d="&#10;      M1938 2170&#10;      L2020 2170&#10;      A16 16 90 0 1 2036 2186&#10;      L2036 2332&#10;      A16 16 90 0 0 2052 2348&#10;      L2176 2348" stroke="#a6761d" stroke-width="2"/>
    
      <path class="link" d="&#10;      M2050 2270&#10;      L2118 2270&#10;      A16 16 90 0 1 2134 2286&#10;      L2134 2354&#10;      A16 16 90 0 0 2150 2370&#10;      L2176 2370" stroke="white" stroke-width="5"/>
      <path class="link" d="&#10;      M2050 2270&#10;      L2118 2270&#10;      A16 16 90 0 1 2134 2286&#10;      L2134 2354&#10;      A16 16 90 0 0 2150 2370&#10;      L2176 2370" stroke="#666666" stroke-width="2"/>
    
      <path class="link" d="&#10;      M2050 2292&#10;      L2104 2292&#10;      A16 16 90 0 1 2120 2308&#10;      L2120 2376&#10;      A16 16 90 0 0 2136 2392&#10;      L2176 2392" stroke="white" stroke-width="5"/>
      <path class="link" d="&#10;      M2050 2292&#10;      L2104 2292&#10;      A16 16 90 0 1 2120 2308&#10;      L2120 2376&#10;      A16 16 90 0 0 2136 2392&#10;      L2176 2392" stroke="#1b9e77" stroke-width="2"/>
    
      <path class="link" d="&#10;      M2176 2326&#10;      L2230 2326&#10;      A16 16 90 0 1 2246 2342&#10;      L2246 2388&#10;      A16 16 90 0 0 2262 2404&#10;      L2260 2404" stroke="white" stroke-width="5"/>
      <path class="link" d="&#10;      M2176 2326&#10;      L2230 2326&#10;      A16 16 90 0 1 2246 2342&#10;      L2246 2388&#10;      A16 16 90 0 0 2262 2404&#10;      L2260 2404" stroke="#d95f02" stroke-width="2"/>
    
      <path class="link" d="&#10;      M2260 2406&#10;      L2314 2406&#10;      A16 16 90 0 1 2330 2422&#10;      L2330 2468&#10;      A16 16 90 0 0 2346 2484&#10;      L2344 2484&#10;      M2260 2406&#10;      L2314 2406&#10;      A16 16 90 0 1 2330 2422&#10;      L2330 2498&#10;      A16 16 90 0 0 2346 2514&#10;      L2344 2514&#10;      M2260 2406&#10;      L2314 2406&#10;      A16 16 90 0 1 2330 2422&#10;      L2330 2524&#10;      A16 16 90 0 0 2346 2540&#10;      L2344 2540&#10;      M2260 2406&#10;      L2314 2406&#10;      A16 16 90 0 1 2330 2422&#10;      L2330 2546&#10;      A16 16 90 0 0 2346 2562&#10;      L2344 2562" stroke="white" stroke-width="5"/>
      <path class="link" d="&#10;      M2260 2406&#10;      L2314 2406&#10;      A16 16 90 0 1 2330 2422&#10;      L2330 2468&#10;      A16 16 90 0 0 2346 2484&#10;      L2344 2484&#10;      M2260 2406&#10;      L2314 2406&#10;      A16 16 90 0 1 2330 2422&#10;      L2330 2498&#10;      A16 16 90 0 0 2346 2514&#10;      L2344 2514&#10;      M2260 2406&#10;      L2314 2406&#10;      A16 16 90 0 1 2330 2422&#10;      L2330 2524&#10;      A16 16 90 0 0 2346 2540&#10;      L2344 2540&#10;      M2260 2406&#10;      L2314 2406&#10;      A16 16 90 0 1 2330 2422&#10;      L2330 2546&#10;      A16 16 90 0 0 2346 2562&#10;      L2344 2562" stroke="#7570b3" stroke-width="2"/>
    
      <path class="link" d="&#10;      M2260 2402&#10;      L2412 2402&#10;      A16 16 90 0 1 2428 2418&#10;      L2428 2572&#10;      A16 16 90 0 0 2444 2588&#10;      L2442 2588&#10;      M2344 2480&#10;      L2412 2480&#10;      A16 16 90 0 1 2428 2496&#10;      L2428 2572&#10;      A16 16 90 0 0 2444 2588&#10;      L2442 2588&#10;      M2344 2510&#10;      L2412 2510&#10;      A16 16 90 0 1 2428 2526&#10;      L2428 2572&#10;      A16 16 90 0 0 2444 2588&#10;      L2442 2588" stroke="white" stroke-width="5"/>
      <path class="link" d="&#10;      M2260 2402&#10;      L2412 2402&#10;      A16 16 90 0 1 2428 2418&#10;      L2428 2572&#10;      A16 16 90 0 0 2444 2588&#10;      L2442 2588&#10;      M2344 2480&#10;      L2412 2480&#10;      A16 16 90 0 1 2428 2496&#10;      L2428 2572&#10;      A16 16 90 0 0 2444 2588&#10;      L2442 2588&#10;      M2344 2510&#10;      L2412 2510&#10;      A16 16 90 0 1 2428 2526&#10;      L2428 2572&#10;      A16 16 90 0 0 2444 2588&#10;      L2442 2588" stroke="#e7298a" stroke-width="2"/>
    
      <path class="link" d="&#10;      M2344 2488&#10;      L2398 2488&#10;      A16 16 90 0 1 2414 2504&#10;      L2414 2596&#10;      A16 16 90 0 0 2430 2612&#10;      L2442 2612&#10;      M2344 2518&#10;      L2398 2518&#10;      A16 16 90 0 1 2414 2534&#10;      L2414 2596&#10;      A16 16 90 0 0 2430 2612&#10;      L2442 2612" stroke="white" stroke-width="5"/>
      <path class="link" d="&#10;      M2344 2488&#10;      L2398 2488&#10;      A16 16 90 0 1 2414 2504&#10;      L2414 2596&#10;      A16 16 90 0 0 2430 2612&#10;      L2442 2612&#10;      M2344 2518&#10;      L2398 2518&#10;      A16 16 90 0 1 2414 2534&#10;      L2414 2596&#10;      A16 16 90 0 0 2430 2612&#10;      L2442 2612" stroke="#66a61e" stroke-width="2"/>
    
      <path class="link" d="&#10;      M2442 2614&#10;      L2510 2614&#10;      A16 16 90 0 1 2526 2630&#10;      L2526 2676&#10;      A16 16 90 0 0 2542 2692&#10;      L2540 2692&#10;      M2442 2614&#10;      L2510 2614&#10;      A16 16 90 0 1 2526 2630&#10;      L2526 2698&#10;      A16 16 90 0 0 2542 2714&#10;      L2540 2714&#10;      M2442 2614&#10;      L2510 2614&#10;      A16 16 90 0 1 2526 2630&#10;      L2526 2720&#10;      A16 16 90 0 0 2542 2736&#10;      L2540 2736&#10;      M2442 2614&#10;      L2510 2614&#10;      A16 16 90 0 1 2526 2630&#10;      L2526 2742&#10;      A16 16 90 0 0 2542 2758&#10;      L2540 2758" stroke="white" stroke-width="5"/>
      <path class="link" d="&#10;      M2442 2614&#10;      L2510 2614&#10;      A16 16 90 0 1 2526 2630&#10;      L2526 2676&#10;      A16 16 90 0 0 2542 2692&#10;      L2540 2692&#10;      M2442 2614&#10;      L2510 2614&#10;      A16 16 90 0 1 2526 2630&#10;      L2526 2698&#10;      A16 16 90 0 0 2542 2714&#10;      L2540 2714&#10;      M2442 2614&#10;      L2510 2614&#10;      A16 16 90 0 1 2526 2630&#10;      L2526 2720&#10;      A16 16 90 0 0 2542 2736&#10;      L2540 2736&#10;      M2442 2614&#10;      L2510 2614&#10;      A16 16 90 0 1 2526 2630&#10;      L2526 2742&#10;      A16 16 90 0 0 2542 2758&#10;      L2540 2758" stroke="#e6ab02" stroke-width="2"/>
    
      <path class="link" d="&#10;      M2344 2484&#10;      L2496 2484&#10;      A16 16 90 0 1 2512 2500&#10;      L2512 2768&#10;      A16 16 90 0 0 2528 2784&#10;      L2540 2784&#10;      M2344 2514&#10;      L2496 2514&#10;      A16 16 90 0 1 2512 2530&#10;      L2512 2768&#10;      A16 16 90 0 0 2528 2784&#10;      L2540 2784&#10;      M2442 2610&#10;      L2496 2610&#10;      A16 16 90 0 1 2512 2626&#10;      L2512 2768&#10;      A16 16 90 0 0 2528 2784&#10;      L2540 2784" stroke="white" stroke-width="5"/>
      <path class="link" d="&#10;      M2344 2484&#10;      L2496 2484&#10;      A16 16 90 0 1 2512 2500&#10;      L2512 2768&#10;      A16 16 90 0 0 2528 2784&#10;      L2540 2784&#10;      M2344 2514&#10;      L2496 2514&#10;      A16 16 90 0 1 2512 2530&#10;      L2512 2768&#10;      A16 16 90 0 0 2528 2784&#10;      L2540 2784&#10;      M2442 2610&#10;      L2496 2610&#10;      A16 16 90 0 1 2512 2626&#10;      L2512 2768&#10;      A16 16 90 0 0 2528 2784&#10;      L2540 2784" stroke="#a6761d" stroke-width="2"/>
    
      <path class="link" d="&#10;      M2540 2788&#10;      L2622 2788&#10;      A16 16 90 0 1 2638 2804&#10;      L2638 2850&#10;      A16 16 90 0 0 2654 2866&#10;      L2652 2866&#10;      M2540 2788&#10;      L2622 2788&#10;      A16 16 90 0 1 2638 2804&#10;      L2638 2872&#10;      A16 16 90 0 0 2654 2888&#10;      L2652 2888&#10;      M2540 2788&#10;      L2622 2788&#10;      A16 16 90 0 1 2638 2804&#10;      L2638 2894&#10;      A16 16 90 0 0 2654 2910&#10;      L2652 2910&#10;      M2540 2788&#10;      L2622 2788&#10;      A16 16 90 0 1 2638 2804&#10;      L2638 2916&#10;      A16 16 90 0 0 2654 2932&#10;      L2652 2932" stroke="white" stroke-width="5"/>
      <path class="link" d="&#10;      M2540 2788&#10;      L2622 2788&#10;      A16 16 90 0 1 2638 2804&#10;      L2638 2850&#10;      A16 16 90 0 0 2654 2866&#10;      L2652 2866&#10;      M2540 2788&#10;      L2622 2788&#10;      A16 16 90 0 1 2638 2804&#10;      L2638 2872&#10;      A16 16 90 0 0 2654 2888&#10;      L2652 2888&#10;      M2540 2788&#10;      L2622 2788&#10;      A16 16 90 0 1 2638 2804&#10;      L2638 2894&#10;      A16 16 90 0 0 2654 2910&#10;      L2652 2910&#10;      M2540 2788&#10;      L2622 2788&#10;      A16 16 90 0 1 2638 2804&#10;      L2638 2916&#10;      A16 16 90 0 0 2654 2932&#10;      L2652 2932" stroke="#666666" stroke-width="2"/>
    
      <path class="link" d="&#10;      M104 132&#10;      L2608 132&#10;      A16 16 90 0 1 2624 148&#10;      L2624 2938&#10;      A16 16 90 0 0 2640 2954&#10;      L2652 2954&#10;      M2540 2780&#10;      L2608 2780&#10;      A16 16 90 0 1 2624 2796&#10;      L2624 2938&#10;      A16 16 90 0 0 2640 2954&#10;      L2652 2954" stroke="white" stroke-width="5"/>
      <path class="link" d="&#10;      M104 132&#10;      L2608 132&#10;      A16 16 90 0 1 2624 148&#10;      L2624 2938&#10;      A16 16 90 0 0 2640 2954&#10;      L2652 2954&#10;      M2540 2780&#10;      L2608 2780&#10;      A16 16 90 0 1 2624 2796&#10;      L2624 2938&#10;      A16 16 90 0 0 2640 2954&#10;      L2652 2954" stroke="#1b9e77" stroke-width="2"/>
    
      <path class="link" d="&#10;      M2540 2784&#10;      L2594 2784&#10;      A16 16 90 0 1 2610 2800&#10;      L2610 2960&#10;      A16 16 90 0 0 2626 2976&#10;      L2652 2976&#10;      M1140 1364&#10;      L2594 1364&#10;      A16 16 90 0 1 2610 1380&#10;      L2610 2960&#10;      A16 16 90 0 0 2626 2976&#10;      L2652 2976" stroke="white" stroke-width="5"/>
      <path class="link" d="&#10;      M2540 2784&#10;      L2594 2784&#10;      A16 16 90 0 1 2610 2800&#10;      L2610 2960&#10;      A16 16 90 0 0 2626 2976&#10;      L2652 2976&#10;      M1140 1364&#10;      L2594 1364&#10;      A16 16 90 0 1 2610 1380&#10;      L2610 2960&#10;      A16 16 90 0 0 2626 2976&#10;      L2652 2976" stroke="#d95f02" stroke-width="2"/>
    
      <path class="link" d="&#10;      M2652 2866&#10;      L2734 2866&#10;      A16 16 90 0 1 2750 2882&#10;      L2750 2994&#10;      A16 16 90 0 0 2766 3010&#10;      L2764 3010" stroke="white" stroke-width="5"/>
      <path class="link" d="&#10;      M2652 2866&#10;      L2734 2866&#10;      A16 16 90 0 1 2750 2882&#10;      L2750 2994&#10;      A16 16 90 0 0 2766 3010&#10;      L2764 3010" stroke="#7570b3" stroke-width="2"/>
    
      <path class="link" d="&#10;      M2652 2954&#10;      L2720 2954&#10;      A16 16 90 0 1 2736 2970&#10;      L2736 3016&#10;      A16 16 90 0 0 2752 3032&#10;      L2764 3032&#10;      M2652 2954&#10;      L2720 2954&#10;      A16 16 90 0 1 2736 2970&#10;      L2736 3038&#10;      A16 16 90 0 0 2752 3054&#10;      L2764 3054&#10;      M2652 2954&#10;      L2720 2954&#10;      A16 16 90 0 1 2736 2970&#10;      L2736 3060&#10;      A16 16 90 0 0 2752 3076&#10;      L2764 3076&#10;      M2652 2954&#10;      L2720 2954&#10;      A16 16 90 0 1 2736 2970&#10;      L2736 3082&#10;      A16 16 90 0 0 2752 3098&#10;      L2764 3098" stroke="white" stroke-width="5"/>
      <path class="link" d="&#10;      M2652 2954&#10;      L2720 2954&#10;      A16 16 90 0 1 2736 2970&#10;      L2736 3016&#10;      A16 16 90 0 0 2752 3032&#10;      L2764 3032&#10;      M2652 2954&#10;      L2720 2954&#10;      A16 16 90 0 1 2736 2970&#10;      L2736 3038&#10;      A16 16 90 0 0 2752 3054&#10;      L2764 3054&#10;      M2652 2954&#10;      L2720 2954&#10;      A16 16 90 0 1 2736 2970&#10;      L2736 3060&#10;      A16 16 90 0 0 2752 3076&#10;      L2764 3076&#10;      M2652 2954&#10;      L2720 2954&#10;      A16 16 90 0 1 2736 2970&#10;      L2736 3082&#10;      A16 16 90 0 0 2752 3098&#10;      L2764 3098" stroke="#e7298a" stroke-width="2"/>
    
      <path class="link" d="&#10;      M2652 2976&#10;      L2706 2976&#10;      A16 16 90 0 1 2722 2992&#10;      L2722 3104&#10;      A16 16 90 0 0 2738 3120&#10;      L2764 3120&#10;      M2652 2976&#10;      L2706 2976&#10;      A16 16 90 0 1 2722 2992&#10;      L2722 3126&#10;      A16 16 90 0 0 2738 3142&#10;      L2764 3142&#10;      M2652 2976&#10;      L2706 2976&#10;      A16 16 90 0 1 2722 2992&#10;      L2722 3148&#10;      A16 16 90 0 0 2738 3164&#10;      L2764 3164&#10;      M2652 2976&#10;      L2706 2976&#10;      A16 16 90 0 1 2722 2992&#10;      L2722 3170&#10;      A16 16 90 0 0 2738 3186&#10;      L2764 3186" stroke="white" stroke-width="5"/>
      <path class="link" d="&#10;      M2652 2976&#10;      L2706 2976&#10;      A16 16 90 0 1 2722 2992&#10;      L2722 3104&#10;      A16 16 90 0 0 2738 3120&#10;      L2764 3120&#10;      M2652 2976&#10;      L2706 2976&#10;      A16 16 90 0 1 2722 2992&#10;      L2722 3126&#10;      A16 16 90 0 0 2738 3142&#10;      L2764 3142&#10;      M2652 2976&#10;      L2706 2976&#10;      A16 16 90 0 1 2722 2992&#10;      L2722 3148&#10;      A16 16 90 0 0 2738 3164&#10;      L2764 3164&#10;      M2652 2976&#10;      L2706 2976&#10;      A16 16 90 0 1 2722 2992&#10;      L2722 3170&#10;      A16 16 90 0 0 2738 3186&#10;      L2764 3186" stroke="#66a61e" stroke-width="2"/>
    
      <path class="link" d="&#10;      M2764 3010&#10;      L2818 3010&#10;      A16 16 90 0 1 2834 3026&#10;      L2834 3072&#10;      A16 16 90 0 0 2850 3088&#10;      L2848 3088&#10;      M2764 3010&#10;      L2818 3010&#10;      A16 16 90 0 1 2834 3026&#10;      L2834 3094&#10;      A16 16 90 0 0 2850 3110&#10;      L2848 3110&#10;      M2764 3010&#10;      L2818 3010&#10;      A16 16 90 0 1 2834 3026&#10;      L2834 3116&#10;      A16 16 90 0 0 2850 3132&#10;      L2848 3132" stroke="white" stroke-width="5"/>
      <path class="link" d="&#10;      M2764 3010&#10;      L2818 3010&#10;      A16 16 90 0 1 2834 3026&#10;      L2834 3072&#10;      A16 16 90 0 0 2850 3088&#10;      L2848 3088&#10;      M2764 3010&#10;      L2818 3010&#10;      A16 16 90 0 1 2834 3026&#10;      L2834 3094&#10;      A16 16 90 0 0 2850 3110&#10;      L2848 3110&#10;      M2764 3010&#10;      L2818 3010&#10;      A16 16 90 0 1 2834 3026&#10;      L2834 3116&#10;      A16 16 90 0 0 2850 3132&#10;      L2848 3132" stroke="#e6ab02" stroke-width="2"/>
    

  
    <path class="selectable node" data-id="Classical Latin" stroke="black" stroke-width="8" d="M20 58 L20 58"/>
    <path class="node" stroke="white" stroke-width="4" d="M20 58 L20 58"/>

    <text class="selectable" data-id="Classical Latin" x="24" y="54" stroke="white" stroke-width="2">Classical Latin</text>
    <text x="24" y="54" style="pointer-events: none;">Classical Latin</text>
  
    <path class="selectable node" data-id="Roman Square Capitals" stroke="black" stroke-width="8" d="M104 132 L104 140"/>
    <path class="node" stroke="white" stroke-width="4" d="M104 132 L104 140"/>

    <text class="selectable" data-id="Roman Square Capitals" x="108" y="128" stroke="white" stroke-width="2">Roman Square Capitals</text>
    <text x="108" y="128" style="pointer-events: none;">Roman Square Capitals</text>
  
    <path class="selectable node" data-id="Roman Rustic Capitals" stroke="black" stroke-width="8" d="M104 162 L104 162"/>
    <path class="node" stroke="white" stroke-width="4" d="M104 162 L104 162"/>

    <text class="selectable" data-id="Roman Rustic Capitals" x="108" y="158" stroke="white" stroke-width="2">Roman Rustic Capitals</text>
    <text x="108" y="158" style="pointer-events: none;">Roman Rustic Capitals</text>
  
    <path class="selectable node" data-id="Old Roman Cursive" stroke="black" stroke-width="8" d="M188 218 L188 218"/>
    <path class="node" stroke="white" stroke-width="4" d="M188 218 L188 218"/>

    <text class="selectable" data-id="Old Roman Cursive" x="192" y="214" stroke="white" stroke-width="2">Old Roman Cursive</text>
    <text x="192" y="214" style="pointer-events: none;">Old Roman Cursive</text>
  
    <path class="selectable node" data-id="New Roman Cursive" stroke="black" stroke-width="8" d="M272 294 L272 298"/>
    <path class="node" stroke="white" stroke-width="4" d="M272 294 L272 298"/>

    <text class="selectable" data-id="New Roman Cursive" x="276" y="290" stroke="white" stroke-width="2">New Roman Cursive</text>
    <text x="276" y="290" style="pointer-events: none;">New Roman Cursive</text>
  
    <path class="selectable node" data-id="Roman Uncials" stroke="black" stroke-width="8" d="M356 370 L356 374"/>
    <path class="node" stroke="white" stroke-width="4" d="M356 370 L356 374"/>

    <text class="selectable" data-id="Roman Uncials" x="360" y="366" stroke="white" stroke-width="2">Roman Uncials</text>
    <text x="360" y="366" style="pointer-events: none;">Roman Uncials</text>
  
    <path class="selectable node" data-id="Roman Half-Uncials" stroke="black" stroke-width="8" d="M356 396 L356 404"/>
    <path class="node" stroke="white" stroke-width="4" d="M356 396 L356 404"/>

    <text class="selectable" data-id="Roman Half-Uncials" x="360" y="392" stroke="white" stroke-width="2">Roman Half-Uncials</text>
    <text x="360" y="392" style="pointer-events: none;">Roman Half-Uncials</text>
  
    <path class="selectable node" data-id="Lombardic Minuscules" stroke="black" stroke-width="8" d="M356 426 L356 430"/>
    <path class="node" stroke="white" stroke-width="4" d="M356 426 L356 430"/>

    <text class="selectable" data-id="Lombardic Minuscules" x="360" y="422" stroke="white" stroke-width="2">Lombardic Minuscules</text>
    <text x="360" y="422" style="pointer-events: none;">Lombardic Minuscules</text>
  
    <path class="selectable node" data-id="Insular Half-Uncials" stroke="black" stroke-width="8" d="M482 482 L482 482"/>
    <path class="node" stroke="white" stroke-width="4" d="M482 482 L482 482"/>

    <text class="selectable" data-id="Insular Half-Uncials" x="486" y="478" stroke="white" stroke-width="2">Insular Half-Uncials</text>
    <text x="486" y="478" style="pointer-events: none;">Insular Half-Uncials</text>
  
    <path class="selectable node" data-id="Insular Minuscules" stroke="black" stroke-width="8" d="M482 504 L482 504"/>
    <path class="node" stroke="white" stroke-width="4" d="M482 504 L482 504"/>

    <text class="selectable" data-id="Insular Minuscules" x="486" y="500" stroke="white" stroke-width="2">Insular Minuscules</text>
    <text x="486" y="500" style="pointer-events: none;">Insular Minuscules</text>
  
    <path class="selectable node" data-id="Visigothic Minuscules" stroke="black" stroke-width="8" d="M482 526 L482 526"/>
    <path class="node" stroke="white" stroke-width="4" d="M482 526 L482 526"/>

    <text class="selectable" data-id="Visigothic Minuscules" x="486" y="522" stroke="white" stroke-width="2">Visigothic Minuscules</text>
    <text x="486" y="522" style="pointer-events: none;">Visigothic Minuscules</text>
  
    <path class="selectable node" data-id="Merovingian Minuscules" stroke="black" stroke-width="8" d="M482 548 L482 552"/>
    <path class="node" stroke="white" stroke-width="4" d="M482 548 L482 552"/>

    <text class="selectable" data-id="Merovingian Minuscules" x="486" y="544" stroke="white" stroke-width="2">Merovingian Minuscules</text>
    <text x="486" y="544" style="pointer-events: none;">Merovingian Minuscules</text>
  
    <path class="selectable node" data-id="Franco-Lombardic Minuscules" stroke="black" stroke-width="8" d="M482 574 L482 574"/>
    <path class="node" stroke="white" stroke-width="4" d="M482 574 L482 574"/>

    <text class="selectable" data-id="Franco-Lombardic Minuscules" x="486" y="570" stroke="white" stroke-width="2">Franco-Lombardic Minuscules</text>
    <text x="486" y="570" style="pointer-events: none;">Franco-Lombardic Minuscules</text>
  
    <path class="selectable node" data-id="Beneventan Minuscules" stroke="black" stroke-width="8" d="M482 596 L482 596"/>
    <path class="node" stroke="white" stroke-width="4" d="M482 596 L482 596"/>

    <text class="selectable" data-id="Beneventan Minuscules" x="486" y="592" stroke="white" stroke-width="2">Beneventan Minuscules</text>
    <text x="486" y="592" style="pointer-events: none;">Beneventan Minuscules</text>
  
    <path class="selectable node" data-id="Anglo-Saxon Minuscules" stroke="black" stroke-width="8" d="M580 648 L580 652"/>
    <path class="node" stroke="white" stroke-width="4" d="M580 648 L580 652"/>

    <text class="selectable" data-id="Anglo-Saxon Minuscules" x="584" y="644" stroke="white" stroke-width="2">Anglo-Saxon Minuscules</text>
    <text x="584" y="644" style="pointer-events: none;">Anglo-Saxon Minuscules</text>
  
    <path class="selectable node" data-id="Broken Lombardic Minuscules" stroke="black" stroke-width="8" d="M580 674 L580 674"/>
    <path class="node" stroke="white" stroke-width="4" d="M580 674 L580 674"/>

    <text class="selectable" data-id="Broken Lombardic Minuscules" x="584" y="670" stroke="white" stroke-width="2">Broken Lombardic Minuscules</text>
    <text x="584" y="670" style="pointer-events: none;">Broken Lombardic Minuscules</text>
  
    <path class="selectable node" data-id="East-Frankish Minuscules" stroke="black" stroke-width="8" d="M664 730 L664 730"/>
    <path class="node" stroke="white" stroke-width="4" d="M664 730 L664 730"/>

    <text class="selectable" data-id="East-Frankish Minuscules" x="668" y="726" stroke="white" stroke-width="2">East-Frankish Minuscules</text>
    <text x="668" y="726" style="pointer-events: none;">East-Frankish Minuscules</text>
  
    <path class="selectable node" data-id="Caroline Minuscules" stroke="black" stroke-width="8" d="M748 808 L748 808"/>
    <path class="node" stroke="white" stroke-width="4" d="M748 808 L748 808"/>

    <text class="selectable" data-id="Caroline Minuscules" x="752" y="804" stroke="white" stroke-width="2">Caroline Minuscules</text>
    <text x="752" y="804" style="pointer-events: none;">Caroline Minuscules</text>
  
    <path class="selectable node" data-id="Proto-Gothic Script" stroke="black" stroke-width="8" d="M832 886 L832 886"/>
    <path class="node" stroke="white" stroke-width="4" d="M832 886 L832 886"/>

    <text class="selectable" data-id="Proto-Gothic Script" x="836" y="882" stroke="white" stroke-width="2">Proto-Gothic Script</text>
    <text x="836" y="882" style="pointer-events: none;">Proto-Gothic Script</text>
  
    <path class="selectable node" data-id="Formal Gothic Script" stroke="black" stroke-width="8" d="M916 960 L916 968"/>
    <path class="node" stroke="white" stroke-width="4" d="M916 960 L916 968"/>

    <text class="selectable" data-id="Formal Gothic Script" x="920" y="956" stroke="white" stroke-width="2">Formal Gothic Script</text>
    <text x="920" y="956" style="pointer-events: none;">Formal Gothic Script</text>
  
    <path class="selectable node" data-id="Gothica Textura Prescissa" stroke="black" stroke-width="8" d="M1000 1046 L1000 1046"/>
    <path class="node" stroke="white" stroke-width="4" d="M1000 1046 L1000 1046"/>

    <text class="selectable" data-id="Gothica Textura Prescissa" x="1004" y="1042" stroke="white" stroke-width="2">Gothica Textura Prescissa</text>
    <text x="1004" y="1042" style="pointer-events: none;">Gothica Textura Prescissa</text>
  
    <path class="selectable node" data-id="Gothica Textura Rotunda" stroke="black" stroke-width="8" d="M1000 1068 L1000 1072"/>
    <path class="node" stroke="white" stroke-width="4" d="M1000 1068 L1000 1072"/>

    <text class="selectable" data-id="Gothica Textura Rotunda" x="1004" y="1064" stroke="white" stroke-width="2">Gothica Textura Rotunda</text>
    <text x="1004" y="1064" style="pointer-events: none;">Gothica Textura Rotunda</text>
  
    <path class="selectable node" data-id="Cursive Gothic Script" stroke="black" stroke-width="8" d="M1000 1094 L1000 1098"/>
    <path class="node" stroke="white" stroke-width="4" d="M1000 1094 L1000 1098"/>

    <text class="selectable" data-id="Cursive Gothic Script" x="1004" y="1090" stroke="white" stroke-width="2">Cursive Gothic Script</text>
    <text x="1004" y="1090" style="pointer-events: none;">Cursive Gothic Script</text>
  
    <path class="selectable node" data-id="Gothica Glossularis" stroke="black" stroke-width="8" d="M1000 1120 L1000 1120"/>
    <path class="node" stroke="white" stroke-width="4" d="M1000 1120 L1000 1120"/>

    <text class="selectable" data-id="Gothica Glossularis" x="1004" y="1116" stroke="white" stroke-width="2">Gothica Glossularis</text>
    <text x="1004" y="1116" style="pointer-events: none;">Gothica Glossularis</text>
  
    <path class="selectable node" data-id="Gothica Notularis" stroke="black" stroke-width="8" d="M1000 1142 L1000 1142"/>
    <path class="node" stroke="white" stroke-width="4" d="M1000 1142 L1000 1142"/>

    <text class="selectable" data-id="Gothica Notularis" x="1004" y="1138" stroke="white" stroke-width="2">Gothica Notularis</text>
    <text x="1004" y="1138" style="pointer-events: none;">Gothica Notularis</text>
  
    <path class="selectable node" data-id="Gothica Textura Quadrata" stroke="black" stroke-width="8" d="M1140 1124 L1140 1124"/>
    <path class="node" stroke="white" stroke-width="4" d="M1140 1124 L1140 1124"/>

    <text class="selectable" data-id="Gothica Textura Quadrata" x="1144" y="1120" stroke="white" stroke-width="2">Gothica Textura Quadrata</text>
    <text x="1144" y="1120" style="pointer-events: none;">Gothica Textura Quadrata</text>
  
    <path class="selectable node" data-id="Gothica Textura Semiquadrata" stroke="black" stroke-width="8" d="M1140 1146 L1140 1146"/>
    <path class="node" stroke="white" stroke-width="4" d="M1140 1146 L1140 1146"/>

    <text class="selectable" data-id="Gothica Textura Semiquadrata" x="1144" y="1142" stroke="white" stroke-width="2">Gothica Textura Semiquadrata</text>
    <text x="1144" y="1142" style="pointer-events: none;">Gothica Textura Semiquadrata</text>
  
    <path class="selectable node" data-id="Italian Rotunda" stroke="black" stroke-width="8" d="M1140 1168 L1140 1168"/>
    <path class="node" stroke="white" stroke-width="4" d="M1140 1168 L1140 1168"/>

    <text class="selectable" data-id="Italian Rotunda" x="1144" y="1164" stroke="white" stroke-width="2">Italian Rotunda</text>
    <text x="1144" y="1164" style="pointer-events: none;">Italian Rotunda</text>
  
    <path class="selectable node" data-id="Lettre de Somme" stroke="black" stroke-width="8" d="M1140 1190 L1140 1190"/>
    <path class="node" stroke="white" stroke-width="4" d="M1140 1190 L1140 1190"/>

    <text class="selectable" data-id="Lettre de Somme" x="1144" y="1186" stroke="white" stroke-width="2">Lettre de Somme</text>
    <text x="1144" y="1186" style="pointer-events: none;">Lettre de Somme</text>
  
    <path class="selectable node" data-id="Spanish Round-hand" stroke="black" stroke-width="8" d="M1140 1212 L1140 1212"/>
    <path class="node" stroke="white" stroke-width="4" d="M1140 1212 L1140 1212"/>

    <text class="selectable" data-id="Spanish Round-hand" x="1144" y="1208" stroke="white" stroke-width="2">Spanish Round-hand</text>
    <text x="1144" y="1208" style="pointer-events: none;">Spanish Round-hand</text>
  
    <path class="selectable node" data-id="Italian Cursive Gothic" stroke="black" stroke-width="8" d="M1140 1234 L1140 1238"/>
    <path class="node" stroke="white" stroke-width="4" d="M1140 1234 L1140 1238"/>

    <text class="selectable" data-id="Italian Cursive Gothic" x="1144" y="1230" stroke="white" stroke-width="2">Italian Cursive Gothic</text>
    <text x="1144" y="1230" style="pointer-events: none;">Italian Cursive Gothic</text>
  
    <path class="selectable node" data-id="French Cursive Gothic" stroke="black" stroke-width="8" d="M1140 1260 L1140 1260"/>
    <path class="node" stroke="white" stroke-width="4" d="M1140 1260 L1140 1260"/>

    <text class="selectable" data-id="French Cursive Gothic" x="1144" y="1256" stroke="white" stroke-width="2">French Cursive Gothic</text>
    <text x="1144" y="1256" style="pointer-events: none;">French Cursive Gothic</text>
  
    <path class="selectable node" data-id="German/Flemish Cursive Gothic" stroke="black" stroke-width="8" d="M1140 1282 L1140 1282"/>
    <path class="node" stroke="white" stroke-width="4" d="M1140 1282 L1140 1282"/>

    <text class="selectable" data-id="German/Flemish Cursive Gothic" x="1144" y="1278" stroke="white" stroke-width="2">German/Flemish Cursive Gothic</text>
    <text x="1144" y="1278" style="pointer-events: none;">German/Flemish Cursive Gothic</text>
  
    <path class="selectable node" data-id="English Cursive Gothic" stroke="black" stroke-width="8" d="M1140 1304 L1140 1308"/>
    <path class="node" stroke="white" stroke-width="4" d="M1140 1304 L1140 1308"/>

    <text class="selectable" data-id="English Cursive Gothic" x="1144" y="1300" stroke="white" stroke-width="2">English Cursive Gothic</text>
    <text x="1144" y="1300" style="pointer-events: none;">English Cursive Gothic</text>
  
    <path class="selectable node" data-id="Bastard Gothic Script" stroke="black" stroke-width="8" d="M1140 1330 L1140 1338"/>
    <path class="node" stroke="white" stroke-width="4" d="M1140 1330 L1140 1338"/>

    <text class="selectable" data-id="Bastard Gothic Script" x="1144" y="1326" stroke="white" stroke-width="2">Bastard Gothic Script</text>
    <text x="1144" y="1326" style="pointer-events: none;">Bastard Gothic Script</text>
  
    <path class="selectable node" data-id="Humanist Minuscules" stroke="black" stroke-width="8" d="M1140 1360 L1140 1372"/>
    <path class="node" stroke="white" stroke-width="4" d="M1140 1360 L1140 1372"/>

    <text class="selectable" data-id="Humanist Minuscules" x="1144" y="1356" stroke="white" stroke-width="2">Humanist Minuscules</text>
    <text x="1144" y="1356" style="pointer-events: none;">Humanist Minuscules</text>
  
    <path class="selectable node" data-id="Littera Bononiensis" stroke="black" stroke-width="8" d="M1280 1318 L1280 1318"/>
    <path class="node" stroke="white" stroke-width="4" d="M1280 1318 L1280 1318"/>

    <text class="selectable" data-id="Littera Bononiensis" x="1284" y="1314" stroke="white" stroke-width="2">Littera Bononiensis</text>
    <text x="1284" y="1314" style="pointer-events: none;">Littera Bononiensis</text>
  
    <path class="selectable node" data-id="Littera Oxoniensis" stroke="black" stroke-width="8" d="M1280 1340 L1280 1340"/>
    <path class="node" stroke="white" stroke-width="4" d="M1280 1340 L1280 1340"/>

    <text class="selectable" data-id="Littera Oxoniensis" x="1284" y="1336" stroke="white" stroke-width="2">Littera Oxoniensis</text>
    <text x="1284" y="1336" style="pointer-events: none;">Littera Oxoniensis</text>
  
    <path class="selectable node" data-id="Littera Parisiensis" stroke="black" stroke-width="8" d="M1280 1362 L1280 1362"/>
    <path class="node" stroke="white" stroke-width="4" d="M1280 1362 L1280 1362"/>

    <text class="selectable" data-id="Littera Parisiensis" x="1284" y="1358" stroke="white" stroke-width="2">Littera Parisiensis</text>
    <text x="1284" y="1358" style="pointer-events: none;">Littera Parisiensis</text>
  
    <path class="selectable node" data-id="Anglicana" stroke="black" stroke-width="8" d="M1280 1384 L1280 1388"/>
    <path class="node" stroke="white" stroke-width="4" d="M1280 1384 L1280 1388"/>

    <text class="selectable" data-id="Anglicana" x="1284" y="1380" stroke="white" stroke-width="2">Anglicana</text>
    <text x="1284" y="1380" style="pointer-events: none;">Anglicana</text>
  
    <path class="selectable node" data-id="Cancelleresca" stroke="black" stroke-width="8" d="M1280 1410 L1280 1418"/>
    <path class="node" stroke="white" stroke-width="4" d="M1280 1410 L1280 1418"/>

    <text class="selectable" data-id="Cancelleresca" x="1284" y="1406" stroke="white" stroke-width="2">Cancelleresca</text>
    <text x="1284" y="1406" style="pointer-events: none;">Cancelleresca</text>
  
    <path class="selectable node" data-id="French Chancery Cursive" stroke="black" stroke-width="8" d="M1280 1440 L1280 1440"/>
    <path class="node" stroke="white" stroke-width="4" d="M1280 1440 L1280 1440"/>

    <text class="selectable" data-id="French Chancery Cursive" x="1284" y="1436" stroke="white" stroke-width="2">French Chancery Cursive</text>
    <text x="1284" y="1436" style="pointer-events: none;">French Chancery Cursive</text>
  
    <path class="selectable node" data-id="Anglicana Formata" stroke="black" stroke-width="8" d="M1392 1468 L1392 1468"/>
    <path class="node" stroke="white" stroke-width="4" d="M1392 1468 L1392 1468"/>

    <text class="selectable" data-id="Anglicana Formata" x="1396" y="1464" stroke="white" stroke-width="2">Anglicana Formata</text>
    <text x="1396" y="1464" style="pointer-events: none;">Anglicana Formata</text>
  
    <path class="selectable node" data-id="English Secretary Script" stroke="black" stroke-width="8" d="M1392 1490 L1392 1494"/>
    <path class="node" stroke="white" stroke-width="4" d="M1392 1490 L1392 1494"/>

    <text class="selectable" data-id="English Secretary Script" x="1396" y="1486" stroke="white" stroke-width="2">English Secretary Script</text>
    <text x="1396" y="1486" style="pointer-events: none;">English Secretary Script</text>
  
    <path class="selectable node" data-id="Lettre Bâtarde" stroke="black" stroke-width="8" d="M1392 1516 L1392 1520"/>
    <path class="node" stroke="white" stroke-width="4" d="M1392 1516 L1392 1520"/>

    <text class="selectable" data-id="Lettre Bâtarde" x="1396" y="1512" stroke="white" stroke-width="2">Lettre Bâtarde</text>
    <text x="1396" y="1512" style="pointer-events: none;">Lettre Bâtarde</text>
  
    <path class="selectable node" data-id="Bastarda Anglicana" stroke="black" stroke-width="8" d="M1518 1572 L1518 1572"/>
    <path class="node" stroke="white" stroke-width="4" d="M1518 1572 L1518 1572"/>

    <text class="selectable" data-id="Bastarda Anglicana" x="1522" y="1568" stroke="white" stroke-width="2">Bastarda Anglicana</text>
    <text x="1522" y="1568" style="pointer-events: none;">Bastarda Anglicana</text>
  
    <path class="selectable node" data-id="English Bastard Secretary" stroke="black" stroke-width="8" d="M1518 1594 L1518 1594"/>
    <path class="node" stroke="white" stroke-width="4" d="M1518 1594 L1518 1594"/>

    <text class="selectable" data-id="English Bastard Secretary" x="1522" y="1590" stroke="white" stroke-width="2">English Bastard Secretary</text>
    <text x="1522" y="1590" style="pointer-events: none;">English Bastard Secretary</text>
  
    <path class="selectable node" data-id="Lettre Bourguignone" stroke="black" stroke-width="8" d="M1518 1616 L1518 1616"/>
    <path class="node" stroke="white" stroke-width="4" d="M1518 1616 L1518 1616"/>

    <text class="selectable" data-id="Lettre Bourguignone" x="1522" y="1612" stroke="white" stroke-width="2">Lettre Bourguignone</text>
    <text x="1522" y="1612" style="pointer-events: none;">Lettre Bourguignone</text>
  
    <path class="selectable node" data-id="Schwabacher" stroke="black" stroke-width="8" d="M1518 1638 L1518 1638"/>
    <path class="node" stroke="white" stroke-width="4" d="M1518 1638 L1518 1638"/>

    <text class="selectable" data-id="Schwabacher" x="1522" y="1634" stroke="white" stroke-width="2">Schwabacher</text>
    <text x="1522" y="1634" style="pointer-events: none;">Schwabacher</text>
  
    <path class="selectable node" data-id="Gotico-Antiqua" stroke="black" stroke-width="8" d="M1518 1660 L1518 1660"/>
    <path class="node" stroke="white" stroke-width="4" d="M1518 1660 L1518 1660"/>

    <text class="selectable" data-id="Gotico-Antiqua" x="1522" y="1656" stroke="white" stroke-width="2">Gotico-Antiqua</text>
    <text x="1522" y="1656" style="pointer-events: none;">Gotico-Antiqua</text>
  
    <path class="selectable node" data-id="Fraktur" stroke="black" stroke-width="8" d="M1630 1716 L1630 1716"/>
    <path class="node" stroke="white" stroke-width="4" d="M1630 1716 L1630 1716"/>

    <text class="selectable" data-id="Fraktur" x="1634" y="1712" stroke="white" stroke-width="2">Fraktur</text>
    <text x="1634" y="1712" style="pointer-events: none;">Fraktur</text>
  
    <path class="selectable node" data-id="Venetian Type" stroke="black" stroke-width="8" d="M1630 1738 L1630 1738"/>
    <path class="node" stroke="white" stroke-width="4" d="M1630 1738 L1630 1738"/>

    <text class="selectable" data-id="Venetian Type" x="1634" y="1734" stroke="white" stroke-width="2">Venetian Type</text>
    <text x="1634" y="1734" style="pointer-events: none;">Venetian Type</text>
  
    <path class="selectable node" data-id="Humanist Cursive" stroke="black" stroke-width="8" d="M1630 1760 L1630 1760"/>
    <path class="node" stroke="white" stroke-width="4" d="M1630 1760 L1630 1760"/>

    <text class="selectable" data-id="Humanist Cursive" x="1634" y="1756" stroke="white" stroke-width="2">Humanist Cursive</text>
    <text x="1634" y="1756" style="pointer-events: none;">Humanist Cursive</text>
  
    <path class="selectable node" data-id="Roman Type (Antiqua)" stroke="black" stroke-width="8" d="M1742 1816 L1742 1816"/>
    <path class="node" stroke="white" stroke-width="4" d="M1742 1816 L1742 1816"/>

    <text class="selectable" data-id="Roman Type (Antiqua)" x="1746" y="1812" stroke="white" stroke-width="2">Roman Type (Antiqua)</text>
    <text x="1746" y="1812" style="pointer-events: none;">Roman Type (Antiqua)</text>
  
    <path class="selectable node" data-id="Italic Type" stroke="black" stroke-width="8" d="M1742 1838 L1742 1838"/>
    <path class="node" stroke="white" stroke-width="4" d="M1742 1838 L1742 1838"/>

    <text class="selectable" data-id="Italic Type" x="1746" y="1834" stroke="white" stroke-width="2">Italic Type</text>
    <text x="1746" y="1834" style="pointer-events: none;">Italic Type</text>
  
    <path class="selectable node" data-id="Gaelic Type" stroke="black" stroke-width="8" d="M1742 1860 L1742 1860"/>
    <path class="node" stroke="white" stroke-width="4" d="M1742 1860 L1742 1860"/>

    <text class="selectable" data-id="Gaelic Type" x="1746" y="1856" stroke="white" stroke-width="2">Gaelic Type</text>
    <text x="1746" y="1856" style="pointer-events: none;">Gaelic Type</text>
  
    <path class="selectable node" data-id="Aldino Italic Type (Italics)" stroke="black" stroke-width="8" d="M1840 1916 L1840 1916"/>
    <path class="node" stroke="white" stroke-width="4" d="M1840 1916 L1840 1916"/>

    <text class="selectable" data-id="Aldino Italic Type (Italics)" x="1844" y="1912" stroke="white" stroke-width="2">Aldino Italic Type (Italics)</text>
    <text x="1844" y="1912" style="pointer-events: none;">Aldino Italic Type (Italics)</text>
  
    <path class="selectable node" data-id="Parangon de Granjon" stroke="black" stroke-width="8" d="M1840 1938 L1840 1938"/>
    <path class="node" stroke="white" stroke-width="4" d="M1840 1938 L1840 1938"/>

    <text class="selectable" data-id="Parangon de Granjon" x="1844" y="1934" stroke="white" stroke-width="2">Parangon de Granjon</text>
    <text x="1844" y="1934" style="pointer-events: none;">Parangon de Granjon</text>
  
    <path class="selectable node" data-id="French Roman Type" stroke="black" stroke-width="8" d="M1840 1960 L1840 1960"/>
    <path class="node" stroke="white" stroke-width="4" d="M1840 1960 L1840 1960"/>

    <text class="selectable" data-id="French Roman Type" x="1844" y="1956" stroke="white" stroke-width="2">French Roman Type</text>
    <text x="1844" y="1956" style="pointer-events: none;">French Roman Type</text>
  
    <path class="selectable node" data-id="Swiss/German Roman Type" stroke="black" stroke-width="8" d="M1938 2038 L1938 2038"/>
    <path class="node" stroke="white" stroke-width="4" d="M1938 2038 L1938 2038"/>

    <text class="selectable" data-id="Swiss/German Roman Type" x="1942" y="2034" stroke="white" stroke-width="2">Swiss/German Roman Type</text>
    <text x="1942" y="2034" style="pointer-events: none;">Swiss/German Roman Type</text>
  
    <path class="selectable node" data-id="De Colines" stroke="black" stroke-width="8" d="M1938 2060 L1938 2060"/>
    <path class="node" stroke="white" stroke-width="4" d="M1938 2060 L1938 2060"/>

    <text class="selectable" data-id="De Colines" x="1942" y="2056" stroke="white" stroke-width="2">De Colines</text>
    <text x="1942" y="2056" style="pointer-events: none;">De Colines</text>
  
    <path class="selectable node" data-id="Augereau" stroke="black" stroke-width="8" d="M1938 2082 L1938 2082"/>
    <path class="node" stroke="white" stroke-width="4" d="M1938 2082 L1938 2082"/>

    <text class="selectable" data-id="Augereau" x="1942" y="2078" stroke="white" stroke-width="2">Augereau</text>
    <text x="1942" y="2078" style="pointer-events: none;">Augereau</text>
  
    <path class="selectable node" data-id="Estienne" stroke="black" stroke-width="8" d="M1938 2104 L1938 2104"/>
    <path class="node" stroke="white" stroke-width="4" d="M1938 2104 L1938 2104"/>

    <text class="selectable" data-id="Estienne" x="1942" y="2100" stroke="white" stroke-width="2">Estienne</text>
    <text x="1942" y="2100" style="pointer-events: none;">Estienne</text>
  
    <path class="selectable node" data-id="Garamond" stroke="black" stroke-width="8" d="M1938 2126 L1938 2126"/>
    <path class="node" stroke="white" stroke-width="4" d="M1938 2126 L1938 2126"/>

    <text class="selectable" data-id="Garamond" x="1942" y="2122" stroke="white" stroke-width="2">Garamond</text>
    <text x="1942" y="2122" style="pointer-events: none;">Garamond</text>
  
    <path class="selectable node" data-id="Civilité Type" stroke="black" stroke-width="8" d="M1938 2148 L1938 2148"/>
    <path class="node" stroke="white" stroke-width="4" d="M1938 2148 L1938 2148"/>

    <text class="selectable" data-id="Civilité Type" x="1942" y="2144" stroke="white" stroke-width="2">Civilité Type</text>
    <text x="1942" y="2144" style="pointer-events: none;">Civilité Type</text>
  
    <path class="selectable node" data-id="Dutch Roman Type" stroke="black" stroke-width="8" d="M1938 2170 L1938 2174"/>
    <path class="node" stroke="white" stroke-width="4" d="M1938 2170 L1938 2174"/>

    <text class="selectable" data-id="Dutch Roman Type" x="1942" y="2166" stroke="white" stroke-width="2">Dutch Roman Type</text>
    <text x="1942" y="2166" style="pointer-events: none;">Dutch Roman Type</text>
  
    <path class="selectable node" data-id="Fell Type" stroke="black" stroke-width="8" d="M2050 2248 L2050 2248"/>
    <path class="node" stroke="white" stroke-width="4" d="M2050 2248 L2050 2248"/>

    <text class="selectable" data-id="Fell Type" x="2054" y="2244" stroke="white" stroke-width="2">Fell Type</text>
    <text x="2054" y="2244" style="pointer-events: none;">Fell Type</text>
  
    <path class="selectable node" data-id="English Roundhand" stroke="black" stroke-width="8" d="M2050 2270 L2050 2270"/>
    <path class="node" stroke="white" stroke-width="4" d="M2050 2270 L2050 2270"/>

    <text class="selectable" data-id="English Roundhand" x="2054" y="2266" stroke="white" stroke-width="2">English Roundhand</text>
    <text x="2054" y="2266" style="pointer-events: none;">English Roundhand</text>
  
    <path class="selectable node" data-id="Italian Roundhand" stroke="black" stroke-width="8" d="M2050 2292 L2050 2292"/>
    <path class="node" stroke="white" stroke-width="4" d="M2050 2292 L2050 2292"/>

    <text class="selectable" data-id="Italian Roundhand" x="2054" y="2288" stroke="white" stroke-width="2">Italian Roundhand</text>
    <text x="2054" y="2288" style="pointer-events: none;">Italian Roundhand</text>
  
    <path class="selectable node" data-id="Caslon Type" stroke="black" stroke-width="8" d="M2176 2326 L2176 2326"/>
    <path class="node" stroke="white" stroke-width="4" d="M2176 2326 L2176 2326"/>

    <text class="selectable" data-id="Caslon Type" x="2180" y="2322" stroke="white" stroke-width="2">Caslon Type</text>
    <text x="2180" y="2322" style="pointer-events: none;">Caslon Type</text>
  
    <path class="selectable node" data-id="Fleischmann Type" stroke="black" stroke-width="8" d="M2176 2348 L2176 2348"/>
    <path class="node" stroke="white" stroke-width="4" d="M2176 2348 L2176 2348"/>

    <text class="selectable" data-id="Fleischmann Type" x="2180" y="2344" stroke="white" stroke-width="2">Fleischmann Type</text>
    <text x="2180" y="2344" style="pointer-events: none;">Fleischmann Type</text>
  
    <path class="selectable node" data-id="English Copperplate" stroke="black" stroke-width="8" d="M2176 2370 L2176 2370"/>
    <path class="node" stroke="white" stroke-width="4" d="M2176 2370 L2176 2370"/>

    <text class="selectable" data-id="English Copperplate" x="2180" y="2366" stroke="white" stroke-width="2">English Copperplate</text>
    <text x="2180" y="2366" style="pointer-events: none;">English Copperplate</text>
  
    <path class="selectable node" data-id="Italian Copperplate" stroke="black" stroke-width="8" d="M2176 2392 L2176 2392"/>
    <path class="node" stroke="white" stroke-width="4" d="M2176 2392 L2176 2392"/>

    <text class="selectable" data-id="Italian Copperplate" x="2180" y="2388" stroke="white" stroke-width="2">Italian Copperplate</text>
    <text x="2180" y="2388" style="pointer-events: none;">Italian Copperplate</text>
  
    <path class="selectable node" data-id="Baskerville Type" stroke="black" stroke-width="8" d="M2260 2402 L2260 2406"/>
    <path class="node" stroke="white" stroke-width="4" d="M2260 2402 L2260 2406"/>

    <text class="selectable" data-id="Baskerville Type" x="2264" y="2398" stroke="white" stroke-width="2">Baskerville Type</text>
    <text x="2264" y="2398" style="pointer-events: none;">Baskerville Type</text>
  
    <path class="selectable node" data-id="Bodoni Type" stroke="black" stroke-width="8" d="M2344 2480 L2344 2488"/>
    <path class="node" stroke="white" stroke-width="4" d="M2344 2480 L2344 2488"/>

    <text class="selectable" data-id="Bodoni Type" x="2348" y="2476" stroke="white" stroke-width="2">Bodoni Type</text>
    <text x="2348" y="2476" style="pointer-events: none;">Bodoni Type</text>
  
    <path class="selectable node" data-id="Didot Type" stroke="black" stroke-width="8" d="M2344 2510 L2344 2518"/>
    <path class="node" stroke="white" stroke-width="4" d="M2344 2510 L2344 2518"/>

    <text class="selectable" data-id="Didot Type" x="2348" y="2506" stroke="white" stroke-width="2">Didot Type</text>
    <text x="2348" y="2506" style="pointer-events: none;">Didot Type</text>
  
    <path class="selectable node" data-id="Bulmer Type" stroke="black" stroke-width="8" d="M2344 2540 L2344 2540"/>
    <path class="node" stroke="white" stroke-width="4" d="M2344 2540 L2344 2540"/>

    <text class="selectable" data-id="Bulmer Type" x="2348" y="2536" stroke="white" stroke-width="2">Bulmer Type</text>
    <text x="2348" y="2536" style="pointer-events: none;">Bulmer Type</text>
  
    <path class="selectable node" data-id="Mrs Eaves" stroke="black" stroke-width="8" d="M2344 2562 L2344 2562"/>
    <path class="node" stroke="white" stroke-width="4" d="M2344 2562 L2344 2562"/>

    <text class="selectable" data-id="Mrs Eaves" x="2348" y="2558" stroke="white" stroke-width="2">Mrs Eaves</text>
    <text x="2348" y="2558" style="pointer-events: none;">Mrs Eaves</text>
  
    <path class="selectable node" data-id="Ibarra Type" stroke="black" stroke-width="8" d="M2442 2588 L2442 2588"/>
    <path class="node" stroke="white" stroke-width="4" d="M2442 2588 L2442 2588"/>

    <text class="selectable" data-id="Ibarra Type" x="2446" y="2584" stroke="white" stroke-width="2">Ibarra Type</text>
    <text x="2446" y="2584" style="pointer-events: none;">Ibarra Type</text>
  
    <path class="selectable node" data-id="Slab Serif" stroke="black" stroke-width="8" d="M2442 2610 L2442 2614"/>
    <path class="node" stroke="white" stroke-width="4" d="M2442 2610 L2442 2614"/>

    <text class="selectable" data-id="Slab Serif" x="2446" y="2606" stroke="white" stroke-width="2">Slab Serif</text>
    <text x="2446" y="2606" style="pointer-events: none;">Slab Serif</text>
  
    <path class="selectable node" data-id="Egyptienne" stroke="black" stroke-width="8" d="M2540 2692 L2540 2692"/>
    <path class="node" stroke="white" stroke-width="4" d="M2540 2692 L2540 2692"/>

    <text class="selectable" data-id="Egyptienne" x="2544" y="2688" stroke="white" stroke-width="2">Egyptienne</text>
    <text x="2544" y="2688" style="pointer-events: none;">Egyptienne</text>
  
    <path class="selectable node" data-id="Clarendon" stroke="black" stroke-width="8" d="M2540 2714 L2540 2714"/>
    <path class="node" stroke="white" stroke-width="4" d="M2540 2714 L2540 2714"/>

    <text class="selectable" data-id="Clarendon" x="2544" y="2710" stroke="white" stroke-width="2">Clarendon</text>
    <text x="2544" y="2710" style="pointer-events: none;">Clarendon</text>
  
    <path class="selectable node" data-id="Rockwell" stroke="black" stroke-width="8" d="M2540 2736 L2540 2736"/>
    <path class="node" stroke="white" stroke-width="4" d="M2540 2736 L2540 2736"/>

    <text class="selectable" data-id="Rockwell" x="2544" y="2732" stroke="white" stroke-width="2">Rockwell</text>
    <text x="2544" y="2732" style="pointer-events: none;">Rockwell</text>
  
    <path class="selectable node" data-id="Courier" stroke="black" stroke-width="8" d="M2540 2758 L2540 2758"/>
    <path class="node" stroke="white" stroke-width="4" d="M2540 2758 L2540 2758"/>

    <text class="selectable" data-id="Courier" x="2544" y="2754" stroke="white" stroke-width="2">Courier</text>
    <text x="2544" y="2754" style="pointer-events: none;">Courier</text>
  
    <path class="selectable node" data-id="Grotesque Sans-Serif" stroke="black" stroke-width="8" d="M2540 2780 L2540 2788"/>
    <path class="node" stroke="white" stroke-width="4" d="M2540 2780 L2540 2788"/>

    <text class="selectable" data-id="Grotesque Sans-Serif" x="2544" y="2776" stroke="white" stroke-width="2">Grotesque Sans-Serif</text>
    <text x="2544" y="2776" style="pointer-events: none;">Grotesque Sans-Serif</text>
  
    <path class="selectable node" data-id="Akzidenz-Grotesk" stroke="black" stroke-width="8" d="M2652 2866 L2652 2866"/>
    <path class="node" stroke="white" stroke-width="4" d="M2652 2866 L2652 2866"/>

    <text class="selectable" data-id="Akzidenz-Grotesk" x="2656" y="2862" stroke="white" stroke-width="2">Akzidenz-Grotesk</text>
    <text x="2656" y="2862" style="pointer-events: none;">Akzidenz-Grotesk</text>
  
    <path class="selectable node" data-id="Venus" stroke="black" stroke-width="8" d="M2652 2888 L2652 2888"/>
    <path class="node" stroke="white" stroke-width="4" d="M2652 2888 L2652 2888"/>

    <text class="selectable" data-id="Venus" x="2656" y="2884" stroke="white" stroke-width="2">Venus</text>
    <text x="2656" y="2884" style="pointer-events: none;">Venus</text>
  
    <path class="selectable node" data-id="News Gothic" stroke="black" stroke-width="8" d="M2652 2910 L2652 2910"/>
    <path class="node" stroke="white" stroke-width="4" d="M2652 2910 L2652 2910"/>

    <text class="selectable" data-id="News Gothic" x="2656" y="2906" stroke="white" stroke-width="2">News Gothic</text>
    <text x="2656" y="2906" style="pointer-events: none;">News Gothic</text>
  
    <path class="selectable node" data-id="Franklin Gothic" stroke="black" stroke-width="8" d="M2652 2932 L2652 2932"/>
    <path class="node" stroke="white" stroke-width="4" d="M2652 2932 L2652 2932"/>

    <text class="selectable" data-id="Franklin Gothic" x="2656" y="2928" stroke="white" stroke-width="2">Franklin Gothic</text>
    <text x="2656" y="2928" style="pointer-events: none;">Franklin Gothic</text>
  
    <path class="selectable node" data-id="Geometric Sans-Serif" stroke="black" stroke-width="8" d="M2652 2954 L2652 2954"/>
    <path class="node" stroke="white" stroke-width="4" d="M2652 2954 L2652 2954"/>

    <text class="selectable" data-id="Geometric Sans-Serif" x="2656" y="2950" stroke="white" stroke-width="2">Geometric Sans-Serif</text>
    <text x="2656" y="2950" style="pointer-events: none;">Geometric Sans-Serif</text>
  
    <path class="selectable node" data-id="Humanist Sans-Serif" stroke="black" stroke-width="8" d="M2652 2976 L2652 2976"/>
    <path class="node" stroke="white" stroke-width="4" d="M2652 2976 L2652 2976"/>

    <text class="selectable" data-id="Humanist Sans-Serif" x="2656" y="2972" stroke="white" stroke-width="2">Humanist Sans-Serif</text>
    <text x="2656" y="2972" style="pointer-events: none;">Humanist Sans-Serif</text>
  
    <path class="selectable node" data-id="Neo-Grotesque Sans-Serif" stroke="black" stroke-width="8" d="M2764 3010 L2764 3010"/>
    <path class="node" stroke="white" stroke-width="4" d="M2764 3010 L2764 3010"/>

    <text class="selectable" data-id="Neo-Grotesque Sans-Serif" x="2768" y="3006" stroke="white" stroke-width="2">Neo-Grotesque Sans-Serif</text>
    <text x="2768" y="3006" style="pointer-events: none;">Neo-Grotesque Sans-Serif</text>
  
    <path class="selectable node" data-id="Futura" stroke="black" stroke-width="8" d="M2764 3032 L2764 3032"/>
    <path class="node" stroke="white" stroke-width="4" d="M2764 3032 L2764 3032"/>

    <text class="selectable" data-id="Futura" x="2768" y="3028" stroke="white" stroke-width="2">Futura</text>
    <text x="2768" y="3028" style="pointer-events: none;">Futura</text>
  
    <path class="selectable node" data-id="Kabel" stroke="black" stroke-width="8" d="M2764 3054 L2764 3054"/>
    <path class="node" stroke="white" stroke-width="4" d="M2764 3054 L2764 3054"/>

    <text class="selectable" data-id="Kabel" x="2768" y="3050" stroke="white" stroke-width="2">Kabel</text>
    <text x="2768" y="3050" style="pointer-events: none;">Kabel</text>
  
    <path class="selectable node" data-id="Semplicità" stroke="black" stroke-width="8" d="M2764 3076 L2764 3076"/>
    <path class="node" stroke="white" stroke-width="4" d="M2764 3076 L2764 3076"/>

    <text class="selectable" data-id="Semplicità" x="2768" y="3072" stroke="white" stroke-width="2">Semplicità</text>
    <text x="2768" y="3072" style="pointer-events: none;">Semplicità</text>
  
    <path class="selectable node" data-id="Gotham" stroke="black" stroke-width="8" d="M2764 3098 L2764 3098"/>
    <path class="node" stroke="white" stroke-width="4" d="M2764 3098 L2764 3098"/>

    <text class="selectable" data-id="Gotham" x="2768" y="3094" stroke="white" stroke-width="2">Gotham</text>
    <text x="2768" y="3094" style="pointer-events: none;">Gotham</text>
  
    <path class="selectable node" data-id="Johnston" stroke="black" stroke-width="8" d="M2764 3120 L2764 3120"/>
    <path class="node" stroke="white" stroke-width="4" d="M2764 3120 L2764 3120"/>

    <text class="selectable" data-id="Johnston" x="2768" y="3116" stroke="white" stroke-width="2">Johnston</text>
    <text x="2768" y="3116" style="pointer-events: none;">Johnston</text>
  
    <path class="selectable node" data-id="Gill Sans" stroke="black" stroke-width="8" d="M2764 3142 L2764 3142"/>
    <path class="node" stroke="white" stroke-width="4" d="M2764 3142 L2764 3142"/>

    <text class="selectable" data-id="Gill Sans" x="2768" y="3138" stroke="white" stroke-width="2">Gill Sans</text>
    <text x="2768" y="3138" style="pointer-events: none;">Gill Sans</text>
  
    <path class="selectable node" data-id="Optima" stroke="black" stroke-width="8" d="M2764 3164 L2764 3164"/>
    <path class="node" stroke="white" stroke-width="4" d="M2764 3164 L2764 3164"/>

    <text class="selectable" data-id="Optima" x="2768" y="3160" stroke="white" stroke-width="2">Optima</text>
    <text x="2768" y="3160" style="pointer-events: none;">Optima</text>
  
    <path class="selectable node" data-id="Frutiger" stroke="black" stroke-width="8" d="M2764 3186 L2764 3186"/>
    <path class="node" stroke="white" stroke-width="4" d="M2764 3186 L2764 3186"/>

    <text class="selectable" data-id="Frutiger" x="2768" y="3182" stroke="white" stroke-width="2">Frutiger</text>
    <text x="2768" y="3182" style="pointer-events: none;">Frutiger</text>
  
    <path class="selectable node" data-id="Helvetica" stroke="black" stroke-width="8" d="M2848 3088 L2848 3088"/>
    <path class="node" stroke="white" stroke-width="4" d="M2848 3088 L2848 3088"/>

    <text class="selectable" data-id="Helvetica" x="2852" y="3084" stroke="white" stroke-width="2">Helvetica</text>
    <text x="2852" y="3084" style="pointer-events: none;">Helvetica</text>
  
    <path class="selectable node" data-id="Univers" stroke="black" stroke-width="8" d="M2848 3110 L2848 3110"/>
    <path class="node" stroke="white" stroke-width="4" d="M2848 3110 L2848 3110"/>

    <text class="selectable" data-id="Univers" x="2852" y="3106" stroke="white" stroke-width="2">Univers</text>
    <text x="2852" y="3106" style="pointer-events: none;">Univers</text>
  
    <path class="selectable node" data-id="Folio" stroke="black" stroke-width="8" d="M2848 3132 L2848 3132"/>
    <path class="node" stroke="white" stroke-width="4" d="M2848 3132 L2848 3132"/>

    <text class="selectable" data-id="Folio" x="2852" y="3128" stroke="white" stroke-width="2">Folio</text>
    <text x="2852" y="3128" style="pointer-events: none;">Folio</text>
  

  </svg>